ISO-10303-21;
HEADER;
/* Generated by software containing ST-Developer
 * from STEP Tools, Inc. (www.steptools.com) 
 */

FILE_DESCRIPTION(
/* description */ (''),
/* implementation_level */ '2;1');

FILE_NAME(
/* name */ 'MAE148_Titlted_Camera_Wheel.step',
/* time_stamp */ '2026-09-04T18:42:28-07:00',
/* author */ (''),
/* organization */ (''),
/* preprocessor_version */ 'ST-DEVELOPER v20.1',
/* originating_system */ 'Autodesk Translation Framework v15.8.0.0',
/* authorisation */ '');

FILE_SCHEMA (('AUTOMOTIVE_DESIGN { 1 0 10303 214 3 1 1 }'));
ENDSEC;

DATA;
#10=MECHANICAL_DESIGN_GEOMETRIC_PRESENTATION_REPRESENTATION('',(#13),#1194);
#11=SHAPE_REPRESENTATION_RELATIONSHIP('SRR','None',#1201,#12);
#12=ADVANCED_BREP_SHAPE_REPRESENTATION('',(#14),#1193);
#13=STYLED_ITEM('',(#1210),#14);
#14=MANIFOLD_SOLID_BREP('Body1',#646);
#15=TOROIDAL_SURFACE('',#674,13.97,2.54);
#16=TOROIDAL_SURFACE('',#687,13.97,2.54);
#17=ELLIPSE('',#672,3.59210244842766,2.54);
#18=ELLIPSE('',#686,3.59210244842766,2.54);
#19=B_SPLINE_SURFACE_WITH_KNOTS('',3,3,((#983,#984,#985,#986,#987,#988),
(#989,#990,#991,#992,#993,#994),(#995,#996,#997,#998,#999,#1000),(#1001,
#1002,#1003,#1004,#1005,#1006),(#1007,#1008,#1009,#1010,#1011,#1012)),
 .UNSPECIFIED.,.F.,.F.,.F.,(4,1,4),(4,1,1,4),(0.,0.571428571428571,1.),
(0.532507965095597,0.672270077182448,0.95179430135615,1.51084274970355),
 .UNSPECIFIED.);
#20=B_SPLINE_SURFACE_WITH_KNOTS('',3,3,((#1021,#1022,#1023,#1024,#1025,
#1026),(#1027,#1028,#1029,#1030,#1031,#1032),(#1033,#1034,#1035,#1036,#1037,
#1038),(#1039,#1040,#1041,#1042,#1043,#1044),(#1045,#1046,#1047,#1048,#1049,
#1050)),.UNSPECIFIED.,.F.,.F.,.F.,(4,1,4),(4,1,1,4),(0.,0.571428571428571,
1.),(0.532532811999122,0.67229151167365,0.951808911022706,1.51084370972082),
 .UNSPECIFIED.);
#21=FACE_BOUND('',#83,.T.);
#22=FACE_BOUND('',#84,.T.);
#23=FACE_BOUND('',#101,.T.);
#24=FACE_BOUND('',#102,.T.);
#25=FACE_BOUND('',#105,.T.);
#26=FACE_BOUND('',#107,.T.);
#27=FACE_BOUND('',#121,.T.);
#28=FACE_BOUND('',#122,.T.);
#29=PLANE('',#663);
#30=PLANE('',#664);
#31=PLANE('',#667);
#32=PLANE('',#668);
#33=PLANE('',#673);
#34=PLANE('',#682);
#35=PLANE('',#683);
#36=PLANE('',#693);
#37=PLANE('',#701);
#38=PLANE('',#703);
#39=PLANE('',#707);
#40=PLANE('',#712);
#41=PLANE('',#715);
#42=PLANE('',#718);
#43=PLANE('',#721);
#44=PLANE('',#722);
#45=FACE_OUTER_BOUND('',#80,.T.);
#46=FACE_OUTER_BOUND('',#81,.T.);
#47=FACE_OUTER_BOUND('',#82,.T.);
#48=FACE_OUTER_BOUND('',#85,.T.);
#49=FACE_OUTER_BOUND('',#86,.T.);
#50=FACE_OUTER_BOUND('',#87,.T.);
#51=FACE_OUTER_BOUND('',#88,.T.);
#52=FACE_OUTER_BOUND('',#89,.T.);
#53=FACE_OUTER_BOUND('',#90,.T.);
#54=FACE_OUTER_BOUND('',#91,.T.);
#55=FACE_OUTER_BOUND('',#92,.T.);
#56=FACE_OUTER_BOUND('',#93,.T.);
#57=FACE_OUTER_BOUND('',#94,.T.);
#58=FACE_OUTER_BOUND('',#95,.T.);
#59=FACE_OUTER_BOUND('',#96,.T.);
#60=FACE_OUTER_BOUND('',#97,.T.);
#61=FACE_OUTER_BOUND('',#98,.T.);
#62=FACE_OUTER_BOUND('',#99,.T.);
#63=FACE_OUTER_BOUND('',#100,.T.);
#64=FACE_OUTER_BOUND('',#103,.T.);
#65=FACE_OUTER_BOUND('',#104,.T.);
#66=FACE_OUTER_BOUND('',#106,.T.);
#67=FACE_OUTER_BOUND('',#108,.T.);
#68=FACE_OUTER_BOUND('',#109,.T.);
#69=FACE_OUTER_BOUND('',#110,.T.);
#70=FACE_OUTER_BOUND('',#111,.T.);
#71=FACE_OUTER_BOUND('',#112,.T.);
#72=FACE_OUTER_BOUND('',#113,.T.);
#73=FACE_OUTER_BOUND('',#114,.T.);
#74=FACE_OUTER_BOUND('',#115,.T.);
#75=FACE_OUTER_BOUND('',#116,.T.);
#76=FACE_OUTER_BOUND('',#117,.T.);
#77=FACE_OUTER_BOUND('',#118,.T.);
#78=FACE_OUTER_BOUND('',#119,.T.);
#79=FACE_OUTER_BOUND('',#120,.T.);
#80=EDGE_LOOP('',(#414,#415,#416,#417,#418,#419,#420,#421,#422,#423));
#81=EDGE_LOOP('',(#424,#425,#426,#427,#428));
#82=EDGE_LOOP('',(#429,#430,#431,#432));
#83=EDGE_LOOP('',(#433));
#84=EDGE_LOOP('',(#434));
#85=EDGE_LOOP('',(#435,#436,#437,#438,#439));
#86=EDGE_LOOP('',(#440,#441,#442,#443,#444));
#87=EDGE_LOOP('',(#445,#446,#447,#448));
#88=EDGE_LOOP('',(#449,#450,#451,#452));
#89=EDGE_LOOP('',(#453,#454,#455,#456));
#90=EDGE_LOOP('',(#457,#458,#459,#460,#461));
#91=EDGE_LOOP('',(#462,#463,#464,#465,#466));
#92=EDGE_LOOP('',(#467,#468,#469,#470));
#93=EDGE_LOOP('',(#471,#472,#473,#474));
#94=EDGE_LOOP('',(#475,#476,#477,#478));
#95=EDGE_LOOP('',(#479,#480,#481,#482,#483,#484));
#96=EDGE_LOOP('',(#485,#486,#487,#488));
#97=EDGE_LOOP('',(#489,#490,#491,#492,#493));
#98=EDGE_LOOP('',(#494,#495,#496,#497));
#99=EDGE_LOOP('',(#498,#499,#500,#501));
#100=EDGE_LOOP('',(#502,#503,#504,#505,#506,#507,#508,#509,#510));
#101=EDGE_LOOP('',(#511));
#102=EDGE_LOOP('',(#512,#513,#514,#515));
#103=EDGE_LOOP('',(#516,#517,#518,#519));
#104=EDGE_LOOP('',(#520,#521,#522,#523));
#105=EDGE_LOOP('',(#524));
#106=EDGE_LOOP('',(#525,#526,#527,#528));
#107=EDGE_LOOP('',(#529));
#108=EDGE_LOOP('',(#530,#531,#532,#533));
#109=EDGE_LOOP('',(#534,#535,#536,#537));
#110=EDGE_LOOP('',(#538,#539,#540,#541,#542,#543));
#111=EDGE_LOOP('',(#544,#545,#546,#547));
#112=EDGE_LOOP('',(#548,#549,#550,#551));
#113=EDGE_LOOP('',(#552,#553,#554,#555));
#114=EDGE_LOOP('',(#556,#557,#558,#559));
#115=EDGE_LOOP('',(#560,#561,#562,#563));
#116=EDGE_LOOP('',(#564,#565,#566,#567));
#117=EDGE_LOOP('',(#568,#569,#570,#571));
#118=EDGE_LOOP('',(#572,#573,#574,#575));
#119=EDGE_LOOP('',(#576,#577,#578,#579,#580,#581));
#120=EDGE_LOOP('',(#582,#583,#584,#585,#586,#587,#588,#589,#590));
#121=EDGE_LOOP('',(#591,#592,#593,#594));
#122=EDGE_LOOP('',(#595));
#123=B_SPLINE_CURVE_WITH_KNOTS('',3,(#916,#917,#918,#919,#920,#921,#922,
#923),.UNSPECIFIED.,.F.,.F.,(4,2,2,4),(-0.0908003695835427,-0.0449159718085718,
-0.0124854869356876,0.),.UNSPECIFIED.);
#124=B_SPLINE_CURVE_WITH_KNOTS('',3,(#925,#926,#927,#928,#929,#930),
 .UNSPECIFIED.,.F.,.F.,(4,2,4),(-0.0845779343877461,0.,0.000880354251498959),
 .UNSPECIFIED.);
#125=B_SPLINE_CURVE_WITH_KNOTS('',3,(#934,#935,#936,#937,#938,#939),
 .UNSPECIFIED.,.F.,.F.,(4,2,4),(-0.207971811833382,-0.207093083856678,-0.122669971555197),
 .UNSPECIFIED.);
#126=B_SPLINE_CURVE_WITH_KNOTS('',3,(#941,#942,#943,#944,#945,#946,#947,
#948),.UNSPECIFIED.,.F.,.F.,(4,2,2,4),(-0.112391501362636,-0.0866066497104414,
-0.0596799618839715,0.),.UNSPECIFIED.);
#127=B_SPLINE_CURVE_WITH_KNOTS('',3,(#974,#975,#976,#977,#978,#979),
 .UNSPECIFIED.,.F.,.F.,(4,1,1,4),(-1.51084274970355,-0.95179430135615,-0.672270077182448,
-0.574641440422862),.UNSPECIFIED.);
#128=B_SPLINE_CURVE_WITH_KNOTS('',3,(#1014,#1015,#1016,#1017,#1018,#1019),
 .UNSPECIFIED.,.F.,.F.,(4,1,1,4),(0.532507965095597,0.672270077182448,0.95179430135615,
1.51084274970355),.UNSPECIFIED.);
#129=B_SPLINE_CURVE_WITH_KNOTS('',3,(#1052,#1053,#1054,#1055,#1056,#1057),
 .UNSPECIFIED.,.F.,.F.,(4,1,1,4),(0.574676921766393,0.67229151167365,0.951808911022706,
1.51084370972082),.UNSPECIFIED.);
#130=B_SPLINE_CURVE_WITH_KNOTS('',3,(#1060,#1061,#1062,#1063,#1064,#1065),
 .UNSPECIFIED.,.F.,.F.,(4,1,1,4),(-1.51084370972082,-0.951808911022706,
-0.67229151167365,-0.532532811999122),.UNSPECIFIED.);
#131=LINE('',#910,#184);
#132=LINE('',#914,#185);
#133=LINE('',#932,#186);
#134=LINE('',#949,#187);
#135=LINE('',#952,#188);
#136=LINE('',#954,#189);
#137=LINE('',#956,#190);
#138=LINE('',#957,#191);
#139=LINE('',#960,#192);
#140=LINE('',#961,#193);
#141=LINE('',#968,#194);
#142=LINE('',#970,#195);
#143=LINE('',#971,#196);
#144=LINE('',#981,#197);
#145=LINE('',#982,#198);
#146=LINE('',#1070,#199);
#147=LINE('',#1071,#200);
#148=LINE('',#1073,#201);
#149=LINE('',#1084,#202);
#150=LINE('',#1085,#203);
#151=LINE('',#1088,#204);
#152=LINE('',#1092,#205);
#153=LINE('',#1093,#206);
#154=LINE('',#1096,#207);
#155=LINE('',#1098,#208);
#156=LINE('',#1100,#209);
#157=LINE('',#1104,#210);
#158=LINE('',#1111,#211);
#159=LINE('',#1116,#212);
#160=LINE('',#1117,#213);
#161=LINE('',#1122,#214);
#162=LINE('',#1125,#215);
#163=LINE('',#1130,#216);
#164=LINE('',#1134,#217);
#165=LINE('',#1140,#218);
#166=LINE('',#1141,#219);
#167=LINE('',#1143,#220);
#168=LINE('',#1147,#221);
#169=LINE('',#1151,#222);
#170=LINE('',#1153,#223);
#171=LINE('',#1155,#224);
#172=LINE('',#1159,#225);
#173=LINE('',#1162,#226);
#174=LINE('',#1165,#227);
#175=LINE('',#1168,#228);
#176=LINE('',#1169,#229);
#177=LINE('',#1173,#230);
#178=LINE('',#1175,#231);
#179=LINE('',#1179,#232);
#180=LINE('',#1182,#233);
#181=LINE('',#1183,#234);
#182=LINE('',#1187,#235);
#183=LINE('',#1189,#236);
#184=VECTOR('',#729,10.);
#185=VECTOR('',#732,10.);
#186=VECTOR('',#733,10.);
#187=VECTOR('',#734,10.);
#188=VECTOR('',#737,10.);
#189=VECTOR('',#738,10.);
#190=VECTOR('',#739,10.);
#191=VECTOR('',#740,10.);
#192=VECTOR('',#743,10.);
#193=VECTOR('',#744,10.);
#194=VECTOR('',#751,10.);
#195=VECTOR('',#752,10.);
#196=VECTOR('',#753,10.);
#197=VECTOR('',#756,10.);
#198=VECTOR('',#757,10.);
#199=VECTOR('',#766,10.);
#200=VECTOR('',#767,10.);
#201=VECTOR('',#770,10.);
#202=VECTOR('',#783,10.);
#203=VECTOR('',#784,10.);
#204=VECTOR('',#787,11.43);
#205=VECTOR('',#792,10.);
#206=VECTOR('',#793,10.);
#207=VECTOR('',#796,10.);
#208=VECTOR('',#797,10.);
#209=VECTOR('',#798,10.);
#210=VECTOR('',#803,10.);
#211=VECTOR('',#814,10.);
#212=VECTOR('',#819,10.);
#213=VECTOR('',#820,10.);
#214=VECTOR('',#825,10.);
#215=VECTOR('',#828,10.);
#216=VECTOR('',#831,10.);
#217=VECTOR('',#834,10.);
#218=VECTOR('',#841,10.);
#219=VECTOR('',#842,10.);
#220=VECTOR('',#845,10.);
#221=VECTOR('',#850,10.);
#222=VECTOR('',#855,1.9939);
#223=VECTOR('',#858,1.9939);
#224=VECTOR('',#861,10.);
#225=VECTOR('',#866,1.4986);
#226=VECTOR('',#869,10.);
#227=VECTOR('',#872,10.);
#228=VECTOR('',#875,10.);
#229=VECTOR('',#876,10.);
#230=VECTOR('',#881,10.);
#231=VECTOR('',#884,10.);
#232=VECTOR('',#889,10.);
#233=VECTOR('',#892,10.);
#234=VECTOR('',#893,10.);
#235=VECTOR('',#898,10.);
#236=VECTOR('',#901,10.);
#237=CIRCLE('',#661,2.54);
#238=CIRCLE('',#662,2.54);
#239=CIRCLE('',#665,1.9939);
#240=CIRCLE('',#666,1.9939);
#241=CIRCLE('',#669,2.54);
#242=CIRCLE('',#670,2.54);
#243=CIRCLE('',#675,13.97);
#244=CIRCLE('',#676,2.54);
#245=CIRCLE('',#677,11.43);
#246=CIRCLE('',#679,2.54);
#247=CIRCLE('',#681,11.43);
#248=CIRCLE('',#684,2.54);
#249=CIRCLE('',#688,2.54);
#250=CIRCLE('',#689,13.97);
#251=CIRCLE('',#692,2.54000000000003);
#252=CIRCLE('',#694,3.81);
#253=CIRCLE('',#695,50.8);
#254=CIRCLE('',#696,1.4986);
#255=CIRCLE('',#697,26.8986);
#256=CIRCLE('',#698,23.9014);
#257=CIRCLE('',#700,2.54000000000003);
#258=CIRCLE('',#702,1.9939);
#259=CIRCLE('',#704,1.9939);
#260=CIRCLE('',#709,1.4986);
#261=CIRCLE('',#711,26.8986);
#262=CIRCLE('',#714,23.9014);
#263=CIRCLE('',#717,3.81);
#264=CIRCLE('',#720,50.8);
#265=VERTEX_POINT('',#906);
#266=VERTEX_POINT('',#907);
#267=VERTEX_POINT('',#909);
#268=VERTEX_POINT('',#911);
#269=VERTEX_POINT('',#913);
#270=VERTEX_POINT('',#915);
#271=VERTEX_POINT('',#924);
#272=VERTEX_POINT('',#931);
#273=VERTEX_POINT('',#933);
#274=VERTEX_POINT('',#940);
#275=VERTEX_POINT('',#951);
#276=VERTEX_POINT('',#953);
#277=VERTEX_POINT('',#955);
#278=VERTEX_POINT('',#959);
#279=VERTEX_POINT('',#962);
#280=VERTEX_POINT('',#964);
#281=VERTEX_POINT('',#967);
#282=VERTEX_POINT('',#969);
#283=VERTEX_POINT('',#973);
#284=VERTEX_POINT('',#980);
#285=VERTEX_POINT('',#1013);
#286=VERTEX_POINT('',#1051);
#287=VERTEX_POINT('',#1058);
#288=VERTEX_POINT('',#1067);
#289=VERTEX_POINT('',#1068);
#290=VERTEX_POINT('',#1075);
#291=VERTEX_POINT('',#1077);
#292=VERTEX_POINT('',#1081);
#293=VERTEX_POINT('',#1082);
#294=VERTEX_POINT('',#1087);
#295=VERTEX_POINT('',#1091);
#296=VERTEX_POINT('',#1095);
#297=VERTEX_POINT('',#1097);
#298=VERTEX_POINT('',#1099);
#299=VERTEX_POINT('',#1103);
#300=VERTEX_POINT('',#1107);
#301=VERTEX_POINT('',#1113);
#302=VERTEX_POINT('',#1114);
#303=VERTEX_POINT('',#1119);
#304=VERTEX_POINT('',#1121);
#305=VERTEX_POINT('',#1123);
#306=VERTEX_POINT('',#1126);
#307=VERTEX_POINT('',#1128);
#308=VERTEX_POINT('',#1129);
#309=VERTEX_POINT('',#1131);
#310=VERTEX_POINT('',#1133);
#311=VERTEX_POINT('',#1137);
#312=VERTEX_POINT('',#1138);
#313=VERTEX_POINT('',#1144);
#314=VERTEX_POINT('',#1148);
#315=VERTEX_POINT('',#1157);
#316=VERTEX_POINT('',#1161);
#317=VERTEX_POINT('',#1163);
#318=VERTEX_POINT('',#1167);
#319=VERTEX_POINT('',#1171);
#320=VERTEX_POINT('',#1177);
#321=VERTEX_POINT('',#1181);
#322=VERTEX_POINT('',#1185);
#323=EDGE_CURVE('',#265,#266,#237,.T.);
#324=EDGE_CURVE('',#266,#267,#131,.T.);
#325=EDGE_CURVE('',#267,#268,#238,.T.);
#326=EDGE_CURVE('',#268,#269,#132,.T.);
#327=EDGE_CURVE('',#269,#270,#123,.T.);
#328=EDGE_CURVE('',#270,#271,#124,.T.);
#329=EDGE_CURVE('',#271,#272,#133,.T.);
#330=EDGE_CURVE('',#272,#273,#125,.T.);
#331=EDGE_CURVE('',#273,#274,#126,.T.);
#332=EDGE_CURVE('',#274,#265,#134,.T.);
#333=EDGE_CURVE('',#275,#267,#135,.T.);
#334=EDGE_CURVE('',#276,#275,#136,.T.);
#335=EDGE_CURVE('',#276,#277,#137,.T.);
#336=EDGE_CURVE('',#277,#268,#138,.T.);
#337=EDGE_CURVE('',#266,#278,#139,.T.);
#338=EDGE_CURVE('',#278,#275,#140,.T.);
#339=EDGE_CURVE('',#279,#279,#239,.T.);
#340=EDGE_CURVE('',#280,#280,#240,.T.);
#341=EDGE_CURVE('',#281,#265,#141,.T.);
#342=EDGE_CURVE('',#281,#282,#142,.T.);
#343=EDGE_CURVE('',#282,#278,#143,.T.);
#344=EDGE_CURVE('',#283,#274,#127,.T.);
#345=EDGE_CURVE('',#284,#283,#144,.T.);
#346=EDGE_CURVE('',#284,#281,#145,.T.);
#347=EDGE_CURVE('',#273,#285,#128,.T.);
#348=EDGE_CURVE('',#283,#285,#241,.T.);
#349=EDGE_CURVE('',#269,#286,#129,.T.);
#350=EDGE_CURVE('',#286,#287,#242,.T.);
#351=EDGE_CURVE('',#287,#270,#130,.T.);
#352=EDGE_CURVE('',#288,#289,#17,.T.);
#353=EDGE_CURVE('',#289,#287,#146,.T.);
#354=EDGE_CURVE('',#286,#288,#147,.T.);
#355=EDGE_CURVE('',#277,#288,#148,.T.);
#356=EDGE_CURVE('',#287,#290,#243,.T.);
#357=EDGE_CURVE('',#290,#291,#244,.T.);
#358=EDGE_CURVE('',#291,#271,#245,.T.);
#359=EDGE_CURVE('',#292,#293,#246,.T.);
#360=EDGE_CURVE('',#293,#291,#149,.T.);
#361=EDGE_CURVE('',#290,#292,#150,.T.);
#362=EDGE_CURVE('',#291,#294,#151,.T.);
#363=EDGE_CURVE('',#272,#294,#247,.T.);
#364=EDGE_CURVE('',#295,#293,#152,.T.);
#365=EDGE_CURVE('',#294,#295,#153,.T.);
#366=EDGE_CURVE('',#296,#292,#154,.T.);
#367=EDGE_CURVE('',#297,#296,#155,.T.);
#368=EDGE_CURVE('',#297,#298,#156,.T.);
#369=EDGE_CURVE('',#295,#298,#248,.T.);
#370=EDGE_CURVE('',#285,#299,#157,.T.);
#371=EDGE_CURVE('',#299,#284,#18,.T.);
#372=EDGE_CURVE('',#294,#300,#249,.T.);
#373=EDGE_CURVE('',#300,#285,#250,.T.);
#374=EDGE_CURVE('',#298,#300,#158,.T.);
#375=EDGE_CURVE('',#301,#302,#251,.F.);
#376=EDGE_CURVE('',#301,#284,#159,.T.);
#377=EDGE_CURVE('',#299,#302,#160,.T.);
#378=EDGE_CURVE('',#303,#297,#252,.T.);
#379=EDGE_CURVE('',#304,#303,#161,.T.);
#380=EDGE_CURVE('',#305,#304,#253,.T.);
#381=EDGE_CURVE('',#302,#305,#162,.T.);
#382=EDGE_CURVE('',#306,#306,#254,.T.);
#383=EDGE_CURVE('',#307,#308,#163,.T.);
#384=EDGE_CURVE('',#309,#307,#255,.T.);
#385=EDGE_CURVE('',#310,#309,#164,.T.);
#386=EDGE_CURVE('',#308,#310,#256,.T.);
#387=EDGE_CURVE('',#311,#312,#257,.T.);
#388=EDGE_CURVE('',#312,#289,#165,.T.);
#389=EDGE_CURVE('',#288,#311,#166,.T.);
#390=EDGE_CURVE('',#311,#276,#167,.T.);
#391=EDGE_CURVE('',#313,#313,#258,.T.);
#392=EDGE_CURVE('',#282,#301,#168,.T.);
#393=EDGE_CURVE('',#314,#314,#259,.T.);
#394=EDGE_CURVE('',#279,#313,#169,.T.);
#395=EDGE_CURVE('',#280,#314,#170,.T.);
#396=EDGE_CURVE('',#301,#311,#171,.T.);
#397=EDGE_CURVE('',#315,#315,#260,.T.);
#398=EDGE_CURVE('',#315,#306,#172,.T.);
#399=EDGE_CURVE('',#307,#316,#173,.T.);
#400=EDGE_CURVE('',#317,#316,#261,.T.);
#401=EDGE_CURVE('',#309,#317,#174,.T.);
#402=EDGE_CURVE('',#318,#317,#175,.T.);
#403=EDGE_CURVE('',#310,#318,#176,.T.);
#404=EDGE_CURVE('',#319,#318,#262,.T.);
#405=EDGE_CURVE('',#308,#319,#177,.T.);
#406=EDGE_CURVE('',#316,#319,#178,.T.);
#407=EDGE_CURVE('',#320,#296,#263,.T.);
#408=EDGE_CURVE('',#303,#320,#179,.T.);
#409=EDGE_CURVE('',#321,#320,#180,.T.);
#410=EDGE_CURVE('',#304,#321,#181,.T.);
#411=EDGE_CURVE('',#322,#321,#264,.T.);
#412=EDGE_CURVE('',#305,#322,#182,.T.);
#413=EDGE_CURVE('',#312,#322,#183,.T.);
#414=ORIENTED_EDGE('',*,*,#323,.T.);
#415=ORIENTED_EDGE('',*,*,#324,.T.);
#416=ORIENTED_EDGE('',*,*,#325,.T.);
#417=ORIENTED_EDGE('',*,*,#326,.T.);
#418=ORIENTED_EDGE('',*,*,#327,.T.);
#419=ORIENTED_EDGE('',*,*,#328,.T.);
#420=ORIENTED_EDGE('',*,*,#329,.T.);
#421=ORIENTED_EDGE('',*,*,#330,.T.);
#422=ORIENTED_EDGE('',*,*,#331,.T.);
#423=ORIENTED_EDGE('',*,*,#332,.T.);
#424=ORIENTED_EDGE('',*,*,#325,.F.);
#425=ORIENTED_EDGE('',*,*,#333,.F.);
#426=ORIENTED_EDGE('',*,*,#334,.F.);
#427=ORIENTED_EDGE('',*,*,#335,.T.);
#428=ORIENTED_EDGE('',*,*,#336,.T.);
#429=ORIENTED_EDGE('',*,*,#324,.F.);
#430=ORIENTED_EDGE('',*,*,#337,.T.);
#431=ORIENTED_EDGE('',*,*,#338,.T.);
#432=ORIENTED_EDGE('',*,*,#333,.T.);
#433=ORIENTED_EDGE('',*,*,#339,.T.);
#434=ORIENTED_EDGE('',*,*,#340,.T.);
#435=ORIENTED_EDGE('',*,*,#323,.F.);
#436=ORIENTED_EDGE('',*,*,#341,.F.);
#437=ORIENTED_EDGE('',*,*,#342,.T.);
#438=ORIENTED_EDGE('',*,*,#343,.T.);
#439=ORIENTED_EDGE('',*,*,#337,.F.);
#440=ORIENTED_EDGE('',*,*,#332,.F.);
#441=ORIENTED_EDGE('',*,*,#344,.F.);
#442=ORIENTED_EDGE('',*,*,#345,.F.);
#443=ORIENTED_EDGE('',*,*,#346,.T.);
#444=ORIENTED_EDGE('',*,*,#341,.T.);
#445=ORIENTED_EDGE('',*,*,#331,.F.);
#446=ORIENTED_EDGE('',*,*,#347,.T.);
#447=ORIENTED_EDGE('',*,*,#348,.F.);
#448=ORIENTED_EDGE('',*,*,#344,.T.);
#449=ORIENTED_EDGE('',*,*,#327,.F.);
#450=ORIENTED_EDGE('',*,*,#349,.T.);
#451=ORIENTED_EDGE('',*,*,#350,.T.);
#452=ORIENTED_EDGE('',*,*,#351,.T.);
#453=ORIENTED_EDGE('',*,*,#352,.T.);
#454=ORIENTED_EDGE('',*,*,#353,.T.);
#455=ORIENTED_EDGE('',*,*,#350,.F.);
#456=ORIENTED_EDGE('',*,*,#354,.T.);
#457=ORIENTED_EDGE('',*,*,#326,.F.);
#458=ORIENTED_EDGE('',*,*,#336,.F.);
#459=ORIENTED_EDGE('',*,*,#355,.T.);
#460=ORIENTED_EDGE('',*,*,#354,.F.);
#461=ORIENTED_EDGE('',*,*,#349,.F.);
#462=ORIENTED_EDGE('',*,*,#328,.F.);
#463=ORIENTED_EDGE('',*,*,#351,.F.);
#464=ORIENTED_EDGE('',*,*,#356,.T.);
#465=ORIENTED_EDGE('',*,*,#357,.T.);
#466=ORIENTED_EDGE('',*,*,#358,.T.);
#467=ORIENTED_EDGE('',*,*,#359,.T.);
#468=ORIENTED_EDGE('',*,*,#360,.T.);
#469=ORIENTED_EDGE('',*,*,#357,.F.);
#470=ORIENTED_EDGE('',*,*,#361,.T.);
#471=ORIENTED_EDGE('',*,*,#329,.F.);
#472=ORIENTED_EDGE('',*,*,#358,.F.);
#473=ORIENTED_EDGE('',*,*,#362,.T.);
#474=ORIENTED_EDGE('',*,*,#363,.F.);
#475=ORIENTED_EDGE('',*,*,#360,.F.);
#476=ORIENTED_EDGE('',*,*,#364,.F.);
#477=ORIENTED_EDGE('',*,*,#365,.F.);
#478=ORIENTED_EDGE('',*,*,#362,.F.);
#479=ORIENTED_EDGE('',*,*,#359,.F.);
#480=ORIENTED_EDGE('',*,*,#366,.F.);
#481=ORIENTED_EDGE('',*,*,#367,.F.);
#482=ORIENTED_EDGE('',*,*,#368,.T.);
#483=ORIENTED_EDGE('',*,*,#369,.F.);
#484=ORIENTED_EDGE('',*,*,#364,.T.);
#485=ORIENTED_EDGE('',*,*,#348,.T.);
#486=ORIENTED_EDGE('',*,*,#370,.T.);
#487=ORIENTED_EDGE('',*,*,#371,.T.);
#488=ORIENTED_EDGE('',*,*,#345,.T.);
#489=ORIENTED_EDGE('',*,*,#330,.F.);
#490=ORIENTED_EDGE('',*,*,#363,.T.);
#491=ORIENTED_EDGE('',*,*,#372,.T.);
#492=ORIENTED_EDGE('',*,*,#373,.T.);
#493=ORIENTED_EDGE('',*,*,#347,.F.);
#494=ORIENTED_EDGE('',*,*,#369,.T.);
#495=ORIENTED_EDGE('',*,*,#374,.T.);
#496=ORIENTED_EDGE('',*,*,#372,.F.);
#497=ORIENTED_EDGE('',*,*,#365,.T.);
#498=ORIENTED_EDGE('',*,*,#375,.F.);
#499=ORIENTED_EDGE('',*,*,#376,.T.);
#500=ORIENTED_EDGE('',*,*,#371,.F.);
#501=ORIENTED_EDGE('',*,*,#377,.T.);
#502=ORIENTED_EDGE('',*,*,#370,.F.);
#503=ORIENTED_EDGE('',*,*,#373,.F.);
#504=ORIENTED_EDGE('',*,*,#374,.F.);
#505=ORIENTED_EDGE('',*,*,#368,.F.);
#506=ORIENTED_EDGE('',*,*,#378,.F.);
#507=ORIENTED_EDGE('',*,*,#379,.F.);
#508=ORIENTED_EDGE('',*,*,#380,.F.);
#509=ORIENTED_EDGE('',*,*,#381,.F.);
#510=ORIENTED_EDGE('',*,*,#377,.F.);
#511=ORIENTED_EDGE('',*,*,#382,.F.);
#512=ORIENTED_EDGE('',*,*,#383,.F.);
#513=ORIENTED_EDGE('',*,*,#384,.F.);
#514=ORIENTED_EDGE('',*,*,#385,.F.);
#515=ORIENTED_EDGE('',*,*,#386,.F.);
#516=ORIENTED_EDGE('',*,*,#387,.T.);
#517=ORIENTED_EDGE('',*,*,#388,.T.);
#518=ORIENTED_EDGE('',*,*,#352,.F.);
#519=ORIENTED_EDGE('',*,*,#389,.T.);
#520=ORIENTED_EDGE('',*,*,#389,.F.);
#521=ORIENTED_EDGE('',*,*,#355,.F.);
#522=ORIENTED_EDGE('',*,*,#335,.F.);
#523=ORIENTED_EDGE('',*,*,#390,.F.);
#524=ORIENTED_EDGE('',*,*,#391,.F.);
#525=ORIENTED_EDGE('',*,*,#376,.F.);
#526=ORIENTED_EDGE('',*,*,#392,.F.);
#527=ORIENTED_EDGE('',*,*,#342,.F.);
#528=ORIENTED_EDGE('',*,*,#346,.F.);
#529=ORIENTED_EDGE('',*,*,#393,.F.);
#530=ORIENTED_EDGE('',*,*,#339,.F.);
#531=ORIENTED_EDGE('',*,*,#394,.T.);
#532=ORIENTED_EDGE('',*,*,#391,.T.);
#533=ORIENTED_EDGE('',*,*,#394,.F.);
#534=ORIENTED_EDGE('',*,*,#340,.F.);
#535=ORIENTED_EDGE('',*,*,#395,.T.);
#536=ORIENTED_EDGE('',*,*,#393,.T.);
#537=ORIENTED_EDGE('',*,*,#395,.F.);
#538=ORIENTED_EDGE('',*,*,#392,.T.);
#539=ORIENTED_EDGE('',*,*,#396,.T.);
#540=ORIENTED_EDGE('',*,*,#390,.T.);
#541=ORIENTED_EDGE('',*,*,#334,.T.);
#542=ORIENTED_EDGE('',*,*,#338,.F.);
#543=ORIENTED_EDGE('',*,*,#343,.F.);
#544=ORIENTED_EDGE('',*,*,#397,.F.);
#545=ORIENTED_EDGE('',*,*,#398,.T.);
#546=ORIENTED_EDGE('',*,*,#382,.T.);
#547=ORIENTED_EDGE('',*,*,#398,.F.);
#548=ORIENTED_EDGE('',*,*,#384,.T.);
#549=ORIENTED_EDGE('',*,*,#399,.T.);
#550=ORIENTED_EDGE('',*,*,#400,.F.);
#551=ORIENTED_EDGE('',*,*,#401,.F.);
#552=ORIENTED_EDGE('',*,*,#385,.T.);
#553=ORIENTED_EDGE('',*,*,#401,.T.);
#554=ORIENTED_EDGE('',*,*,#402,.F.);
#555=ORIENTED_EDGE('',*,*,#403,.F.);
#556=ORIENTED_EDGE('',*,*,#386,.T.);
#557=ORIENTED_EDGE('',*,*,#403,.T.);
#558=ORIENTED_EDGE('',*,*,#404,.F.);
#559=ORIENTED_EDGE('',*,*,#405,.F.);
#560=ORIENTED_EDGE('',*,*,#383,.T.);
#561=ORIENTED_EDGE('',*,*,#405,.T.);
#562=ORIENTED_EDGE('',*,*,#406,.F.);
#563=ORIENTED_EDGE('',*,*,#399,.F.);
#564=ORIENTED_EDGE('',*,*,#378,.T.);
#565=ORIENTED_EDGE('',*,*,#367,.T.);
#566=ORIENTED_EDGE('',*,*,#407,.F.);
#567=ORIENTED_EDGE('',*,*,#408,.F.);
#568=ORIENTED_EDGE('',*,*,#379,.T.);
#569=ORIENTED_EDGE('',*,*,#408,.T.);
#570=ORIENTED_EDGE('',*,*,#409,.F.);
#571=ORIENTED_EDGE('',*,*,#410,.F.);
#572=ORIENTED_EDGE('',*,*,#380,.T.);
#573=ORIENTED_EDGE('',*,*,#410,.T.);
#574=ORIENTED_EDGE('',*,*,#411,.F.);
#575=ORIENTED_EDGE('',*,*,#412,.F.);
#576=ORIENTED_EDGE('',*,*,#381,.T.);
#577=ORIENTED_EDGE('',*,*,#412,.T.);
#578=ORIENTED_EDGE('',*,*,#413,.F.);
#579=ORIENTED_EDGE('',*,*,#387,.F.);
#580=ORIENTED_EDGE('',*,*,#396,.F.);
#581=ORIENTED_EDGE('',*,*,#375,.T.);
#582=ORIENTED_EDGE('',*,*,#388,.F.);
#583=ORIENTED_EDGE('',*,*,#413,.T.);
#584=ORIENTED_EDGE('',*,*,#411,.T.);
#585=ORIENTED_EDGE('',*,*,#409,.T.);
#586=ORIENTED_EDGE('',*,*,#407,.T.);
#587=ORIENTED_EDGE('',*,*,#366,.T.);
#588=ORIENTED_EDGE('',*,*,#361,.F.);
#589=ORIENTED_EDGE('',*,*,#356,.F.);
#590=ORIENTED_EDGE('',*,*,#353,.F.);
#591=ORIENTED_EDGE('',*,*,#406,.T.);
#592=ORIENTED_EDGE('',*,*,#404,.T.);
#593=ORIENTED_EDGE('',*,*,#402,.T.);
#594=ORIENTED_EDGE('',*,*,#400,.T.);
#595=ORIENTED_EDGE('',*,*,#397,.T.);
#596=CYLINDRICAL_SURFACE('',#660,2.54);
#597=CYLINDRICAL_SURFACE('',#671,2.54);
#598=CYLINDRICAL_SURFACE('',#678,2.54);
#599=CYLINDRICAL_SURFACE('',#680,11.43);
#600=CYLINDRICAL_SURFACE('',#685,2.54);
#601=CYLINDRICAL_SURFACE('',#690,2.54);
#602=CYLINDRICAL_SURFACE('',#691,2.54);
#603=CYLINDRICAL_SURFACE('',#699,2.54);
#604=CYLINDRICAL_SURFACE('',#705,1.9939);
#605=CYLINDRICAL_SURFACE('',#706,1.9939);
#606=CYLINDRICAL_SURFACE('',#708,1.4986);
#607=CYLINDRICAL_SURFACE('',#710,26.8986);
#608=CYLINDRICAL_SURFACE('',#713,23.9014);
#609=CYLINDRICAL_SURFACE('',#716,3.81);
#610=CYLINDRICAL_SURFACE('',#719,50.8);
#611=ADVANCED_FACE('',(#45),#596,.T.);
#612=ADVANCED_FACE('',(#46),#29,.T.);
#613=ADVANCED_FACE('',(#47,#21,#22),#30,.T.);
#614=ADVANCED_FACE('',(#48),#31,.T.);
#615=ADVANCED_FACE('',(#49),#32,.T.);
#616=ADVANCED_FACE('',(#50),#19,.T.);
#617=ADVANCED_FACE('',(#51),#20,.T.);
#618=ADVANCED_FACE('',(#52),#597,.F.);
#619=ADVANCED_FACE('',(#53),#33,.T.);
#620=ADVANCED_FACE('',(#54),#15,.T.);
#621=ADVANCED_FACE('',(#55),#598,.T.);
#622=ADVANCED_FACE('',(#56),#599,.F.);
#623=ADVANCED_FACE('',(#57),#34,.T.);
#624=ADVANCED_FACE('',(#58),#35,.T.);
#625=ADVANCED_FACE('',(#59),#600,.F.);
#626=ADVANCED_FACE('',(#60),#16,.T.);
#627=ADVANCED_FACE('',(#61),#601,.T.);
#628=ADVANCED_FACE('',(#62),#602,.F.);
#629=ADVANCED_FACE('',(#63,#23,#24),#36,.F.);
#630=ADVANCED_FACE('',(#64),#603,.F.);
#631=ADVANCED_FACE('',(#65,#25),#37,.F.);
#632=ADVANCED_FACE('',(#66,#26),#38,.F.);
#633=ADVANCED_FACE('',(#67),#604,.F.);
#634=ADVANCED_FACE('',(#68),#605,.F.);
#635=ADVANCED_FACE('',(#69),#39,.T.);
#636=ADVANCED_FACE('',(#70),#606,.F.);
#637=ADVANCED_FACE('',(#71),#607,.F.);
#638=ADVANCED_FACE('',(#72),#40,.T.);
#639=ADVANCED_FACE('',(#73),#608,.T.);
#640=ADVANCED_FACE('',(#74),#41,.T.);
#641=ADVANCED_FACE('',(#75),#609,.T.);
#642=ADVANCED_FACE('',(#76),#42,.T.);
#643=ADVANCED_FACE('',(#77),#610,.T.);
#644=ADVANCED_FACE('',(#78),#43,.T.);
#645=ADVANCED_FACE('',(#79,#27,#28),#44,.T.);
#646=CLOSED_SHELL('',(#611,#612,#613,#614,#615,#616,#617,#618,#619,#620,
#621,#622,#623,#624,#625,#626,#627,#628,#629,#630,#631,#632,#633,#634,#635,
#636,#637,#638,#639,#640,#641,#642,#643,#644,#645));
#647=DERIVED_UNIT_ELEMENT(#649,1.);
#648=DERIVED_UNIT_ELEMENT(#1196,-3.);
#649=(
MASS_UNIT()
NAMED_UNIT(*)
SI_UNIT(.KILO.,.GRAM.)
);
#650=DERIVED_UNIT((#647,#648));
#651=MEASURE_REPRESENTATION_ITEM('density measure',
POSITIVE_RATIO_MEASURE(7850.),#650);
#652=PROPERTY_DEFINITION_REPRESENTATION(#657,#654);
#653=PROPERTY_DEFINITION_REPRESENTATION(#658,#655);
#654=REPRESENTATION('material name',(#656),#1193);
#655=REPRESENTATION('density',(#651),#1193);
#656=DESCRIPTIVE_REPRESENTATION_ITEM('Steel','Steel');
#657=PROPERTY_DEFINITION('material property','material name',#1203);
#658=PROPERTY_DEFINITION('material property','density of part',#1203);
#659=AXIS2_PLACEMENT_3D('',#904,#723,#724);
#660=AXIS2_PLACEMENT_3D('',#905,#725,#726);
#661=AXIS2_PLACEMENT_3D('',#908,#727,#728);
#662=AXIS2_PLACEMENT_3D('',#912,#730,#731);
#663=AXIS2_PLACEMENT_3D('',#950,#735,#736);
#664=AXIS2_PLACEMENT_3D('',#958,#741,#742);
#665=AXIS2_PLACEMENT_3D('',#963,#745,#746);
#666=AXIS2_PLACEMENT_3D('',#965,#747,#748);
#667=AXIS2_PLACEMENT_3D('',#966,#749,#750);
#668=AXIS2_PLACEMENT_3D('',#972,#754,#755);
#669=AXIS2_PLACEMENT_3D('',#1020,#758,#759);
#670=AXIS2_PLACEMENT_3D('',#1059,#760,#761);
#671=AXIS2_PLACEMENT_3D('',#1066,#762,#763);
#672=AXIS2_PLACEMENT_3D('',#1069,#764,#765);
#673=AXIS2_PLACEMENT_3D('',#1072,#768,#769);
#674=AXIS2_PLACEMENT_3D('',#1074,#771,#772);
#675=AXIS2_PLACEMENT_3D('',#1076,#773,#774);
#676=AXIS2_PLACEMENT_3D('',#1078,#775,#776);
#677=AXIS2_PLACEMENT_3D('',#1079,#777,#778);
#678=AXIS2_PLACEMENT_3D('',#1080,#779,#780);
#679=AXIS2_PLACEMENT_3D('',#1083,#781,#782);
#680=AXIS2_PLACEMENT_3D('',#1086,#785,#786);
#681=AXIS2_PLACEMENT_3D('',#1089,#788,#789);
#682=AXIS2_PLACEMENT_3D('',#1090,#790,#791);
#683=AXIS2_PLACEMENT_3D('',#1094,#794,#795);
#684=AXIS2_PLACEMENT_3D('',#1101,#799,#800);
#685=AXIS2_PLACEMENT_3D('',#1102,#801,#802);
#686=AXIS2_PLACEMENT_3D('',#1105,#804,#805);
#687=AXIS2_PLACEMENT_3D('',#1106,#806,#807);
#688=AXIS2_PLACEMENT_3D('',#1108,#808,#809);
#689=AXIS2_PLACEMENT_3D('',#1109,#810,#811);
#690=AXIS2_PLACEMENT_3D('',#1110,#812,#813);
#691=AXIS2_PLACEMENT_3D('',#1112,#815,#816);
#692=AXIS2_PLACEMENT_3D('',#1115,#817,#818);
#693=AXIS2_PLACEMENT_3D('',#1118,#821,#822);
#694=AXIS2_PLACEMENT_3D('',#1120,#823,#824);
#695=AXIS2_PLACEMENT_3D('',#1124,#826,#827);
#696=AXIS2_PLACEMENT_3D('',#1127,#829,#830);
#697=AXIS2_PLACEMENT_3D('',#1132,#832,#833);
#698=AXIS2_PLACEMENT_3D('',#1135,#835,#836);
#699=AXIS2_PLACEMENT_3D('',#1136,#837,#838);
#700=AXIS2_PLACEMENT_3D('',#1139,#839,#840);
#701=AXIS2_PLACEMENT_3D('',#1142,#843,#844);
#702=AXIS2_PLACEMENT_3D('',#1145,#846,#847);
#703=AXIS2_PLACEMENT_3D('',#1146,#848,#849);
#704=AXIS2_PLACEMENT_3D('',#1149,#851,#852);
#705=AXIS2_PLACEMENT_3D('',#1150,#853,#854);
#706=AXIS2_PLACEMENT_3D('',#1152,#856,#857);
#707=AXIS2_PLACEMENT_3D('',#1154,#859,#860);
#708=AXIS2_PLACEMENT_3D('',#1156,#862,#863);
#709=AXIS2_PLACEMENT_3D('',#1158,#864,#865);
#710=AXIS2_PLACEMENT_3D('',#1160,#867,#868);
#711=AXIS2_PLACEMENT_3D('',#1164,#870,#871);
#712=AXIS2_PLACEMENT_3D('',#1166,#873,#874);
#713=AXIS2_PLACEMENT_3D('',#1170,#877,#878);
#714=AXIS2_PLACEMENT_3D('',#1172,#879,#880);
#715=AXIS2_PLACEMENT_3D('',#1174,#882,#883);
#716=AXIS2_PLACEMENT_3D('',#1176,#885,#886);
#717=AXIS2_PLACEMENT_3D('',#1178,#887,#888);
#718=AXIS2_PLACEMENT_3D('',#1180,#890,#891);
#719=AXIS2_PLACEMENT_3D('',#1184,#894,#895);
#720=AXIS2_PLACEMENT_3D('',#1186,#896,#897);
#721=AXIS2_PLACEMENT_3D('',#1188,#899,#900);
#722=AXIS2_PLACEMENT_3D('',#1190,#902,#903);
#723=DIRECTION('axis',(0.,0.,1.));
#724=DIRECTION('refdir',(1.,0.,0.));
#725=DIRECTION('center_axis',(0.,0.,-1.));
#726=DIRECTION('ref_axis',(0.797724035217466,-0.603022689155526,0.));
#727=DIRECTION('center_axis',(0.,0.,1.));
#728=DIRECTION('ref_axis',(0.797724035217466,-0.603022689155526,0.));
#729=DIRECTION('',(0.,0.,1.));
#730=DIRECTION('center_axis',(0.,0.,-1.));
#731=DIRECTION('ref_axis',(0.797724035217466,-0.603022689155526,0.));
#732=DIRECTION('',(0.,0.,-1.));
#733=DIRECTION('',(0.,0.,-1.));
#734=DIRECTION('',(0.,0.,-1.));
#735=DIRECTION('center_axis',(0.,0.,1.));
#736=DIRECTION('ref_axis',(0.,-1.,0.));
#737=DIRECTION('',(0.,-1.,0.));
#738=DIRECTION('',(1.,0.,0.));
#739=DIRECTION('',(0.,-1.,0.));
#740=DIRECTION('',(1.,0.,0.));
#741=DIRECTION('center_axis',(1.,0.,0.));
#742=DIRECTION('ref_axis',(0.,1.,0.));
#743=DIRECTION('',(0.,1.,0.));
#744=DIRECTION('',(0.,0.,1.));
#745=DIRECTION('center_axis',(-1.,0.,0.));
#746=DIRECTION('ref_axis',(0.,1.,0.));
#747=DIRECTION('center_axis',(-1.,0.,0.));
#748=DIRECTION('ref_axis',(0.,1.,0.));
#749=DIRECTION('center_axis',(0.,0.,-1.));
#750=DIRECTION('ref_axis',(0.,1.,0.));
#751=DIRECTION('',(1.,0.,0.));
#752=DIRECTION('',(0.,1.,0.));
#753=DIRECTION('',(1.,0.,0.));
#754=DIRECTION('center_axis',(0.,-1.,0.));
#755=DIRECTION('ref_axis',(0.,0.,-1.));
#756=DIRECTION('',(1.,0.,0.));
#757=DIRECTION('',(0.,0.,-1.));
#758=DIRECTION('center_axis',(1.,0.,4.37095678986281E-16));
#759=DIRECTION('ref_axis',(0.,1.,0.));
#760=DIRECTION('center_axis',(-1.,0.,4.37095678986282E-16));
#761=DIRECTION('ref_axis',(0.,1.,0.));
#762=DIRECTION('center_axis',(-1.,0.,0.));
#763=DIRECTION('ref_axis',(0.,0.707106781186547,-0.707106781186548));
#764=DIRECTION('center_axis',(-0.707106781186548,0.707106781186548,0.));
#765=DIRECTION('ref_axis',(0.707106781186548,0.707106781186548,0.));
#766=DIRECTION('',(1.,0.,0.));
#767=DIRECTION('',(-1.,0.,0.));
#768=DIRECTION('center_axis',(0.,-1.,0.));
#769=DIRECTION('ref_axis',(0.,0.,-1.));
#770=DIRECTION('',(0.,0.,-1.));
#771=DIRECTION('center_axis',(0.,0.,1.));
#772=DIRECTION('ref_axis',(1.,0.,0.));
#773=DIRECTION('center_axis',(0.,0.,1.));
#774=DIRECTION('ref_axis',(-0.74535599249993,0.666666666666667,0.));
#775=DIRECTION('center_axis',(0.,1.,0.));
#776=DIRECTION('ref_axis',(0.,0.,1.));
#777=DIRECTION('center_axis',(0.,0.,-1.));
#778=DIRECTION('ref_axis',(-0.74535599249993,0.666666666666667,0.));
#779=DIRECTION('center_axis',(6.55643497555021E-17,1.,0.));
#780=DIRECTION('ref_axis',(0.707106781186547,0.,0.707106781186547));
#781=DIRECTION('center_axis',(6.12323360489936E-17,1.,0.));
#782=DIRECTION('ref_axis',(0.707106781186547,0.,0.707106781186547));
#783=DIRECTION('',(6.55643497555021E-17,1.,0.));
#784=DIRECTION('',(-6.55643497555021E-17,-1.,0.));
#785=DIRECTION('center_axis',(0.,0.,1.));
#786=DIRECTION('ref_axis',(-0.111111111111111,0.993807989999906,0.));
#787=DIRECTION('',(0.,0.,-1.));
#788=DIRECTION('center_axis',(0.,0.,1.));
#789=DIRECTION('ref_axis',(-0.74535599249993,0.666666666666667,0.));
#790=DIRECTION('center_axis',(1.,-6.55643497555021E-17,0.));
#791=DIRECTION('ref_axis',(6.55643497555021E-17,1.,0.));
#792=DIRECTION('',(0.,0.,1.));
#793=DIRECTION('',(-6.55643497555021E-17,-1.,0.));
#794=DIRECTION('center_axis',(-6.12323360489936E-17,-1.,0.));
#795=DIRECTION('ref_axis',(1.,-6.12323360489936E-17,0.));
#796=DIRECTION('',(1.,-6.12323360489936E-17,0.));
#797=DIRECTION('',(0.,0.,1.));
#798=DIRECTION('',(1.,-6.12323360489936E-17,0.));
#799=DIRECTION('center_axis',(6.12323360489936E-17,1.,0.));
#800=DIRECTION('ref_axis',(0.707106781186547,0.,-0.707106781186547));
#801=DIRECTION('center_axis',(1.,0.,0.));
#802=DIRECTION('ref_axis',(0.,0.707106781186546,0.707106781186549));
#803=DIRECTION('',(-1.,0.,0.));
#804=DIRECTION('center_axis',(-0.707106781186548,0.707106781186547,0.));
#805=DIRECTION('ref_axis',(0.707106781186547,0.707106781186548,0.));
#806=DIRECTION('center_axis',(0.,0.,1.));
#807=DIRECTION('ref_axis',(1.,0.,0.));
#808=DIRECTION('center_axis',(0.,1.,0.));
#809=DIRECTION('ref_axis',(1.,0.,0.));
#810=DIRECTION('center_axis',(0.,0.,-1.));
#811=DIRECTION('ref_axis',(-0.74535599249993,0.666666666666667,0.));
#812=DIRECTION('center_axis',(6.55643497555021E-17,1.,0.));
#813=DIRECTION('ref_axis',(0.707106781186547,0.,-0.707106781186547));
#814=DIRECTION('',(6.55643497555021E-17,1.,0.));
#815=DIRECTION('center_axis',(0.,1.,0.));
#816=DIRECTION('ref_axis',(0.707106781186548,0.,0.707106781186547));
#817=DIRECTION('center_axis',(-2.13564450621557E-7,0.999999999999977,0.));
#818=DIRECTION('ref_axis',(0.70710678118654,1.51012871254884E-7,0.707106781186539));
#819=DIRECTION('',(0.,-1.,0.));
#820=DIRECTION('',(0.,1.,0.));
#821=DIRECTION('center_axis',(0.,0.,1.));
#822=DIRECTION('ref_axis',(1.,0.,0.));
#823=DIRECTION('center_axis',(0.,0.,1.));
#824=DIRECTION('ref_axis',(1.,0.,0.));
#825=DIRECTION('',(1.,0.,0.));
#826=DIRECTION('center_axis',(0.,0.,1.));
#827=DIRECTION('ref_axis',(0.0750000000000001,0.997183533758957,0.));
#828=DIRECTION('',(-0.999999999999977,-2.13564450621557E-7,0.));
#829=DIRECTION('center_axis',(0.,0.,-1.));
#830=DIRECTION('ref_axis',(1.,0.,0.));
#831=DIRECTION('',(-6.57495331885322E-17,-1.,0.));
#832=DIRECTION('center_axis',(0.,0.,-1.));
#833=DIRECTION('ref_axis',(0.141643059490085,0.989917796434779,0.));
#834=DIRECTION('',(-1.,0.,0.));
#835=DIRECTION('center_axis',(0.,0.,1.));
#836=DIRECTION('ref_axis',(0.159404888416578,0.987213290808475,0.));
#837=DIRECTION('center_axis',(0.,1.,0.));
#838=DIRECTION('ref_axis',(0.707106781186548,0.,-0.707106781186547));
#839=DIRECTION('center_axis',(-2.13564450621557E-7,0.999999999999977,0.));
#840=DIRECTION('ref_axis',(0.70710678118654,1.51012871254884E-7,-0.707106781186539));
#841=DIRECTION('',(0.,-1.,0.));
#842=DIRECTION('',(0.,1.,0.));
#843=DIRECTION('center_axis',(1.,0.,0.));
#844=DIRECTION('ref_axis',(0.,1.,0.));
#845=DIRECTION('',(0.,0.,1.));
#846=DIRECTION('center_axis',(-1.,0.,0.));
#847=DIRECTION('ref_axis',(0.,1.,0.));
#848=DIRECTION('center_axis',(1.,0.,0.));
#849=DIRECTION('ref_axis',(0.,1.,0.));
#850=DIRECTION('',(0.,0.,1.));
#851=DIRECTION('center_axis',(-1.,0.,0.));
#852=DIRECTION('ref_axis',(0.,1.,0.));
#853=DIRECTION('center_axis',(1.,0.,0.));
#854=DIRECTION('ref_axis',(0.,1.,0.));
#855=DIRECTION('',(-1.,0.,0.));
#856=DIRECTION('center_axis',(1.,0.,0.));
#857=DIRECTION('ref_axis',(0.,1.,0.));
#858=DIRECTION('',(-1.,0.,0.));
#859=DIRECTION('center_axis',(0.,1.,0.));
#860=DIRECTION('ref_axis',(0.,0.,1.));
#861=DIRECTION('',(0.,0.,1.));
#862=DIRECTION('center_axis',(0.,0.,1.));
#863=DIRECTION('ref_axis',(1.,0.,0.));
#864=DIRECTION('center_axis',(0.,0.,-1.));
#865=DIRECTION('ref_axis',(1.,0.,0.));
#866=DIRECTION('',(0.,0.,-1.));
#867=DIRECTION('center_axis',(0.,0.,1.));
#868=DIRECTION('ref_axis',(0.141643059490085,0.989917796434779,0.));
#869=DIRECTION('',(0.,0.,1.));
#870=DIRECTION('center_axis',(0.,0.,-1.));
#871=DIRECTION('ref_axis',(0.141643059490085,0.989917796434779,0.));
#872=DIRECTION('',(0.,0.,1.));
#873=DIRECTION('center_axis',(0.,1.,0.));
#874=DIRECTION('ref_axis',(-1.,0.,0.));
#875=DIRECTION('',(-1.,0.,0.));
#876=DIRECTION('',(0.,0.,1.));
#877=DIRECTION('center_axis',(0.,0.,1.));
#878=DIRECTION('ref_axis',(0.159404888416578,0.987213290808475,0.));
#879=DIRECTION('center_axis',(0.,0.,1.));
#880=DIRECTION('ref_axis',(0.159404888416578,0.987213290808475,0.));
#881=DIRECTION('',(0.,0.,1.));
#882=DIRECTION('center_axis',(-1.,6.57495331885322E-17,0.));
#883=DIRECTION('ref_axis',(-6.57495331885322E-17,-1.,0.));
#884=DIRECTION('',(-6.57495331885322E-17,-1.,0.));
#885=DIRECTION('center_axis',(0.,0.,1.));
#886=DIRECTION('ref_axis',(1.,0.,0.));
#887=DIRECTION('center_axis',(0.,0.,1.));
#888=DIRECTION('ref_axis',(1.,0.,0.));
#889=DIRECTION('',(0.,0.,1.));
#890=DIRECTION('center_axis',(0.,-1.,0.));
#891=DIRECTION('ref_axis',(1.,0.,0.));
#892=DIRECTION('',(1.,0.,0.));
#893=DIRECTION('',(0.,0.,1.));
#894=DIRECTION('center_axis',(0.,0.,1.));
#895=DIRECTION('ref_axis',(0.0750000000000001,0.997183533758957,0.));
#896=DIRECTION('center_axis',(0.,0.,1.));
#897=DIRECTION('ref_axis',(0.0750000000000001,0.997183533758957,0.));
#898=DIRECTION('',(0.,0.,1.));
#899=DIRECTION('center_axis',(-2.13564450621557E-7,0.999999999999977,0.));
#900=DIRECTION('ref_axis',(-0.999999999999977,-2.13564450621557E-7,0.));
#901=DIRECTION('',(-0.999999999999977,-2.13564450621557E-7,0.));
#902=DIRECTION('center_axis',(0.,0.,1.));
#903=DIRECTION('ref_axis',(1.,0.,0.));
#904=CARTESIAN_POINT('',(0.,0.,0.));
#905=CARTESIAN_POINT('Origin',(15.240000243187,37.6411929557555,50.80000141859));
#906=CARTESIAN_POINT('',(16.6961055378562,35.5600016212463,-38.10000141859));
#907=CARTESIAN_POINT('',(17.780000243187,37.6411929557555,-38.10000141859));
#908=CARTESIAN_POINT('Origin',(15.240000243187,37.6411929557555,-38.10000141859));
#909=CARTESIAN_POINT('',(17.780000243187,37.6411929557555,50.80000141859));
#910=CARTESIAN_POINT('',(17.780000243187,37.6411929557555,50.80000141859));
#911=CARTESIAN_POINT('',(16.6961055378562,35.5600016212463,50.80000141859));
#912=CARTESIAN_POINT('Origin',(15.240000243187,37.6411929557555,50.80000141859));
#913=CARTESIAN_POINT('',(16.6961055378907,35.560001621256,11.6965534753849));
#914=CARTESIAN_POINT('',(16.6961055378562,35.5600016212463,50.80000141859));
#915=CARTESIAN_POINT('',(16.4670336374998,35.4172349854139,10.7925504845973));
#916=CARTESIAN_POINT('Ctrl Pts',(16.6961055378562,35.5600016212463,11.6965534754184));
#917=CARTESIAN_POINT('Ctrl Pts',(16.6961055378562,35.5600016212463,11.5083984482991));
#918=CARTESIAN_POINT('Ctrl Pts',(16.6783040099365,35.5472535621446,11.337210502562));
#919=CARTESIAN_POINT('Ctrl Pts',(16.6196600033194,35.508357253718,11.085004865236));
#920=CARTESIAN_POINT('Ctrl Pts',(16.5845639840854,35.4854449291694,10.981304644837));
#921=CARTESIAN_POINT('Ctrl Pts',(16.5140379060742,35.4437064417443,10.8559831041486));
#922=CARTESIAN_POINT('Ctrl Pts',(16.4919565786316,35.4309858222686,10.8229123583123));
#923=CARTESIAN_POINT('Ctrl Pts',(16.4670336329462,35.4172349839369,10.7925504863638));
#924=CARTESIAN_POINT('',(15.9327275159142,35.1974808357177,10.16));
#925=CARTESIAN_POINT('Ctrl Pts',(16.4670336340997,35.4172349845733,10.792550487769));
#926=CARTESIAN_POINT('Ctrl Pts',(16.2977616897018,35.3238418851477,10.5863383824354));
#927=CARTESIAN_POINT('Ctrl Pts',(16.1202399799702,35.2510998014096,10.3756107808872));
#928=CARTESIAN_POINT('Ctrl Pts',(15.9365147083418,35.1985567824862,10.1643525893926));
#929=CARTESIAN_POINT('Ctrl Pts',(15.9346214235467,35.1980177080679,10.162176293956));
#930=CARTESIAN_POINT('Ctrl Pts',(15.9327275159142,35.1974808357177,10.16));
#931=CARTESIAN_POINT('',(15.9327275159142,35.1974808357177,2.54));
#932=CARTESIAN_POINT('',(15.9327275159142,35.1974808357177,50.80000141859));
#933=CARTESIAN_POINT('',(16.4670336519964,35.4172349901161,1.90744952102675));
#934=CARTESIAN_POINT('Ctrl Pts',(15.9327275159142,35.1974808357177,2.54));
#935=CARTESIAN_POINT('Ctrl Pts',(15.9346213848039,35.1980176970853,2.53782375056341));
#936=CARTESIAN_POINT('Ctrl Pts',(15.9365146308822,35.1985567604311,2.53564749964698));
#937=CARTESIAN_POINT('Ctrl Pts',(16.1202392015397,35.251099569433,2.3243901169832));
#938=CARTESIAN_POINT('Ctrl Pts',(16.2977610631125,35.3238415390725,2.1136623809745));
#939=CARTESIAN_POINT('Ctrl Pts',(16.4670336377718,35.4172349865993,1.90744950775755));
#940=CARTESIAN_POINT('',(16.6961055394387,35.5600016216911,1.00344652612041));
#941=CARTESIAN_POINT('Ctrl Pts',(16.4670336329462,35.4172349839369,1.90744951363617));
#942=CARTESIAN_POINT('Ctrl Pts',(16.5084494562272,35.4400855047983,1.85699552882355));
#943=CARTESIAN_POINT('Ctrl Pts',(16.542059278691,35.4600742567336,1.79903585754516));
#944=CARTESIAN_POINT('Ctrl Pts',(16.5981389182196,35.4945235160793,1.67381014400333));
#945=CARTESIAN_POINT('Ctrl Pts',(16.6204274223232,35.5089517868907,1.60540526232307));
#946=CARTESIAN_POINT('Ctrl Pts',(16.6762199876004,35.545723313676,1.38256751865391));
#947=CARTESIAN_POINT('Ctrl Pts',(16.6961055378562,35.5600016212463,1.20237973086147));
#948=CARTESIAN_POINT('Ctrl Pts',(16.6961055378562,35.5600016212463,1.00344652458157));
#949=CARTESIAN_POINT('',(16.6961055378562,35.5600016212463,50.80000141859));
#950=CARTESIAN_POINT('Origin',(7.62000024318695,50.8000016212463,50.80000141859));
#951=CARTESIAN_POINT('',(17.780000243187,50.8000016212463,50.80000141859));
#952=CARTESIAN_POINT('',(17.780000243187,50.8000016212463,50.80000141859));
#953=CARTESIAN_POINT('',(7.62000024318695,50.8000016212463,50.80000141859));
#954=CARTESIAN_POINT('',(7.62000024318695,50.8000016212463,50.80000141859));
#955=CARTESIAN_POINT('',(7.62000024318695,35.5600016212463,50.80000141859));
#956=CARTESIAN_POINT('',(7.62000024318695,50.8000016212463,50.80000141859));
#957=CARTESIAN_POINT('',(7.62000024318695,35.5600016212463,50.80000141859));
#958=CARTESIAN_POINT('Origin',(17.780000243187,43.1800016212463,6.35));
#959=CARTESIAN_POINT('',(17.780000243187,50.8000016212463,-38.10000141859));
#960=CARTESIAN_POINT('',(17.780000243187,35.5600016212463,-38.10000141859));
#961=CARTESIAN_POINT('',(17.780000243187,50.8000016212463,-38.10000141859));
#962=CARTESIAN_POINT('',(17.780000243187,41.1861016212463,43.8531));
#963=CARTESIAN_POINT('Origin',(17.780000243187,43.1800016212463,43.8531));
#964=CARTESIAN_POINT('',(17.780000243187,41.1861016212464,-31.1531));
#965=CARTESIAN_POINT('Origin',(17.780000243187,43.1800016212464,-31.1531));
#966=CARTESIAN_POINT('Origin',(7.62000024318695,35.5600016212463,-38.10000141859));
#967=CARTESIAN_POINT('',(7.62000024318695,35.5600016212463,-38.10000141859));
#968=CARTESIAN_POINT('',(7.62000024318695,35.5600016212463,-38.10000141859));
#969=CARTESIAN_POINT('',(7.62000024318695,50.8000016212463,-38.10000141859));
#970=CARTESIAN_POINT('',(7.62000024318695,35.5600016212463,-38.10000141859));
#971=CARTESIAN_POINT('',(7.62000024318695,50.8000016212463,-38.10000141859));
#972=CARTESIAN_POINT('Origin',(7.62000024318695,35.5600016212463,50.80000141859));
#973=CARTESIAN_POINT('',(8.2156952514235,35.5600016212463,-2.54));
#974=CARTESIAN_POINT('Ctrl Pts',(8.21569525142349,35.5600016212463,-2.54));
#975=CARTESIAN_POINT('Ctrl Pts',(10.0791900792482,35.5600016212463,-2.54));
#976=CARTESIAN_POINT('Ctrl Pts',(12.8063236145618,35.5600016212463,-1.63049001104689));
#977=CARTESIAN_POINT('Ctrl Pts',(15.4386164512848,35.5600016212463,0.0382466028824617));
#978=CARTESIAN_POINT('Ctrl Pts',(16.4436652279858,35.5600016212463,0.797395234950042));
#979=CARTESIAN_POINT('Ctrl Pts',(16.6963692426201,35.5600016212463,1.00312168618348));
#980=CARTESIAN_POINT('',(7.62000024318695,35.5600016212463,-2.54));
#981=CARTESIAN_POINT('',(-6.98499981760979,35.5600016212463,-2.54));
#982=CARTESIAN_POINT('',(7.62000024318695,35.5600016212463,50.80000141859));
#983=CARTESIAN_POINT('Ctrl Pts',(17.0190772042573,35.5600016212463,1.2748990412012));
#984=CARTESIAN_POINT('Ctrl Pts',(16.6675312650831,35.5600016212463,0.968095592078674));
#985=CARTESIAN_POINT('Ctrl Pts',(15.5570820464413,35.5600016212463,0.113347622560287));
#986=CARTESIAN_POINT('Ctrl Pts',(12.8063236145618,35.5600016212463,-1.63049001104689));
#987=CARTESIAN_POINT('Ctrl Pts',(10.0791900792482,35.5600016212463,-2.54));
#988=CARTESIAN_POINT('Ctrl Pts',(8.21569525142349,35.5600016212463,-2.54));
#989=CARTESIAN_POINT('Ctrl Pts',(16.9119105751192,35.5600016212463,1.39769424900024));
#990=CARTESIAN_POINT('Ctrl Pts',(16.5436090306071,35.5600172094137,1.12165347726331));
#991=CARTESIAN_POINT('Ctrl Pts',(15.3849885854205,35.5586456892596,0.356583933661046));
#992=CARTESIAN_POINT('Ctrl Pts',(12.5604282285222,35.559710780873,-1.17620952875163));
#993=CARTESIAN_POINT('Ctrl Pts',(9.91076773909696,35.5563874526796,-1.86885728043591));
#994=CARTESIAN_POINT('Ctrl Pts',(8.21569525142349,35.5600016212463,-1.78003377713161));
#995=CARTESIAN_POINT('Ctrl Pts',(16.724373212053,35.5324573933552,1.61258100668802));
#996=CARTESIAN_POINT('Ctrl Pts',(16.3267567813651,35.5208578289639,1.39036560994396));
#997=CARTESIAN_POINT('Ctrl Pts',(15.0841071761312,35.4760536273886,0.78380514051819));
#998=CARTESIAN_POINT('Ctrl Pts',(12.13010792851,35.3062393991206,-0.380543891377642));
#999=CARTESIAN_POINT('Ctrl Pts',(9.62148624071094,35.0772268373813,-0.694503991740599));
#1000=CARTESIAN_POINT('Ctrl Pts',(8.21569525142349,34.9218264066754,-0.464306597808955));
#1001=CARTESIAN_POINT('Ctrl Pts',(16.5428909613917,35.4576389671801,1.82052960842191));
#1002=CARTESIAN_POINT('Ctrl Pts',(16.1194334628938,35.4149336275734,1.64750610853039));
#1003=CARTESIAN_POINT('Ctrl Pts',(14.8090842453049,35.251903909751,1.17138922759014));
#1004=CARTESIAN_POINT('Ctrl Pts',(11.8112152441699,34.6569527247348,0.241357950424244));
#1005=CARTESIAN_POINT('Ctrl Pts',(9.5183494893031,33.9820767083923,-0.10325977496785));
#1006=CARTESIAN_POINT('Ctrl Pts',(8.2156952514235,33.5899762883976,4.40798428362768E-15));
#1007=CARTESIAN_POINT('Ctrl Pts',(16.4670336526243,35.4172349866307,1.9074495206006));
#1008=CARTESIAN_POINT('Ctrl Pts',(16.0335949848879,35.3578987996769,1.75404779603934));
#1009=CARTESIAN_POINT('Ctrl Pts',(14.6987108734522,35.1324665859905,1.32667381128014));
#1010=CARTESIAN_POINT('Ctrl Pts',(11.7092429920647,34.3234816228882,0.454754994476561));
#1011=CARTESIAN_POINT('Ctrl Pts',(9.51877798668119,33.4761822921204,4.07098839200722E-15));
#1012=CARTESIAN_POINT('Ctrl Pts',(8.2156952514235,33.0200016212463,4.44089209850063E-15));
#1013=CARTESIAN_POINT('',(8.2156952514235,33.0200016212463,0.));
#1014=CARTESIAN_POINT('Ctrl Pts',(16.4670336526243,35.4172349866307,1.9074495206006));
#1015=CARTESIAN_POINT('Ctrl Pts',(16.0335949848879,35.3578987996769,1.75404779603934));
#1016=CARTESIAN_POINT('Ctrl Pts',(14.6987108734522,35.1324665859905,1.32667381128014));
#1017=CARTESIAN_POINT('Ctrl Pts',(11.7092429920647,34.3234816228882,0.454754994476561));
#1018=CARTESIAN_POINT('Ctrl Pts',(9.51877798668119,33.4761822921204,4.07098839200722E-15));
#1019=CARTESIAN_POINT('Ctrl Pts',(8.2156952514235,33.0200016212463,4.44089209850063E-15));
#1020=CARTESIAN_POINT('Origin',(8.2156952514235,33.0200016212463,-2.54));
#1021=CARTESIAN_POINT('Ctrl Pts',(16.4670336376499,35.4172349845808,10.7925504846991));
#1022=CARTESIAN_POINT('Ctrl Pts',(16.0338155580596,35.3579289950139,10.9458741387395));
#1023=CARTESIAN_POINT('Ctrl Pts',(14.6984679871167,35.1324322936382,11.3734105455362));
#1024=CARTESIAN_POINT('Ctrl Pts',(11.7097510055796,34.3236712435126,12.2451182207977));
#1025=CARTESIAN_POINT('Ctrl Pts',(9.51874617079378,33.4761711540765,12.7));
#1026=CARTESIAN_POINT('Ctrl Pts',(8.2156952514235,33.0200016212463,12.7));
#1027=CARTESIAN_POINT('Ctrl Pts',(16.5681767164662,35.4711069594126,10.9084437018413));
#1028=CARTESIAN_POINT('Ctrl Pts',(16.1482581830072,35.4339780479475,11.0879140163604));
#1029=CARTESIAN_POINT('Ctrl Pts',(14.8455855962886,35.2908029277206,11.5814071548477));
#1030=CARTESIAN_POINT('Ctrl Pts',(11.8457093807423,34.768142251836,12.5302213765067));
#1031=CARTESIAN_POINT('Ctrl Pts',(9.5169332620966,34.1487917669333,12.8407080889005));
#1032=CARTESIAN_POINT('Ctrl Pts',(8.2156952514235,33.7799678441147,12.7));
#1033=CARTESIAN_POINT('Ctrl Pts',(16.751159614758,35.5393843976397,11.118111797901));
#1034=CARTESIAN_POINT('Ctrl Pts',(16.3579269377411,35.5307226611173,11.3478941182667));
#1035=CARTESIAN_POINT('Ctrl Pts',(15.1266979200796,35.4973355132265,11.9770109181851));
#1036=CARTESIAN_POINT('Ctrl Pts',(12.1918122730953,35.3717835766938,13.1934207760884));
#1037=CARTESIAN_POINT('Ctrl Pts',(9.6598810459528,35.2066998222849,13.5554743129268));
#1038=CARTESIAN_POINT('Ctrl Pts',(8.2156952514235,35.0956071678044,13.3383048521104));
#1039=CARTESIAN_POINT('Ctrl Pts',(16.9387022198244,35.5600016212463,11.3330045627519));
#1040=CARTESIAN_POINT('Ctrl Pts',(16.5747762365468,35.5600028563854,11.6165933030214));
#1041=CARTESIAN_POINT('Ctrl Pts',(15.4278207697167,35.5596690655936,12.4037087364892));
#1042=CARTESIAN_POINT('Ctrl Pts',(12.6222535182679,35.5598154483168,13.9890997122668));
#1043=CARTESIAN_POINT('Ctrl Pts',(9.95372244631792,35.5588391545494,14.7344528115001));
#1044=CARTESIAN_POINT('Ctrl Pts',(8.2156952514235,35.5600016212463,14.6700253328487));
#1045=CARTESIAN_POINT('Ctrl Pts',(17.0190771921121,35.5600016212463,11.4251009693982));
#1046=CARTESIAN_POINT('Ctrl Pts',(16.6677101635681,35.5600016212463,11.7317482774791));
#1047=CARTESIAN_POINT('Ctrl Pts',(15.5568591677007,35.5600016212464,12.5868210910724));
#1048=CARTESIAN_POINT('Ctrl Pts',(12.8066777241862,35.5600016212463,14.3302364415955));
#1049=CARTESIAN_POINT('Ctrl Pts',(10.0791445804172,35.5600016212463,15.24));
#1050=CARTESIAN_POINT('Ctrl Pts',(8.2156952514235,35.5600016212463,15.24));
#1051=CARTESIAN_POINT('',(8.2156952514235,35.5600016212463,15.24));
#1052=CARTESIAN_POINT('Ctrl Pts',(16.696365726637,35.5600016212463,11.6968741459207));
#1053=CARTESIAN_POINT('Ctrl Pts',(16.4437077515733,35.5600016212463,11.9025557815516));
#1054=CARTESIAN_POINT('Ctrl Pts',(15.4383856344862,35.5600016212464,12.6619247090261));
#1055=CARTESIAN_POINT('Ctrl Pts',(12.8066777241862,35.5600016212463,14.3302364415955));
#1056=CARTESIAN_POINT('Ctrl Pts',(10.0791445804172,35.5600016212463,15.24));
#1057=CARTESIAN_POINT('Ctrl Pts',(8.2156952514235,35.5600016212463,15.24));
#1058=CARTESIAN_POINT('',(8.2156952514235,33.0200016212463,12.7));
#1059=CARTESIAN_POINT('Origin',(8.2156952514235,33.0200016212463,15.24));
#1060=CARTESIAN_POINT('Ctrl Pts',(8.2156952514235,33.0200016212463,12.7));
#1061=CARTESIAN_POINT('Ctrl Pts',(9.51874617079378,33.4761711540765,12.7));
#1062=CARTESIAN_POINT('Ctrl Pts',(11.7097510055796,34.3236712435126,12.2451182207977));
#1063=CARTESIAN_POINT('Ctrl Pts',(14.6984679871167,35.1324322936382,11.3734105455362));
#1064=CARTESIAN_POINT('Ctrl Pts',(16.0338155580596,35.3579289950139,10.9458741387395));
#1065=CARTESIAN_POINT('Ctrl Pts',(16.4670336376499,35.4172349845808,10.7925504846991));
#1066=CARTESIAN_POINT('Origin',(-6.98499981760979,33.0200016212463,15.24));
#1067=CARTESIAN_POINT('',(7.62000024318695,35.5600016212463,15.24));
#1068=CARTESIAN_POINT('',(5.08000024318695,33.0200016212463,12.7));
#1069=CARTESIAN_POINT('Origin',(5.08000024318695,33.0200016212463,15.24));
#1070=CARTESIAN_POINT('',(-6.98499981760979,33.0200016212463,12.7));
#1071=CARTESIAN_POINT('',(-6.98499981760979,35.5600016212463,15.24));
#1072=CARTESIAN_POINT('Origin',(7.62000024318695,35.5600016212463,50.80000141859));
#1073=CARTESIAN_POINT('',(7.62000024318695,35.5600016212463,50.80000141859));
#1074=CARTESIAN_POINT('Origin',(19.050000243187,24.2007762955474,10.16));
#1075=CARTESIAN_POINT('',(5.08000024318695,24.2007762955474,12.7));
#1076=CARTESIAN_POINT('Origin',(19.050000243187,24.2007762955474,12.7));
#1077=CARTESIAN_POINT('',(7.62000024318695,24.2007762955474,10.16));
#1078=CARTESIAN_POINT('Origin',(5.08000024318695,24.2007762955474,10.16));
#1079=CARTESIAN_POINT('Origin',(19.050000243187,24.2007762955474,10.16));
#1080=CARTESIAN_POINT('Origin',(5.08000024318695,11.7475004053116,10.16));
#1081=CARTESIAN_POINT('',(5.08000024318695,-7.77650816731269E-17,12.7));
#1082=CARTESIAN_POINT('',(7.62000024318695,-2.33295215237571E-16,10.16));
#1083=CARTESIAN_POINT('Origin',(5.08000024318695,0.,10.16));
#1084=CARTESIAN_POINT('',(7.62000024318695,11.7475004053116,10.16));
#1085=CARTESIAN_POINT('',(5.08000024318695,11.7475004053116,12.7));
#1086=CARTESIAN_POINT('Origin',(19.050000243187,24.2007762955474,50.80000141859));
#1087=CARTESIAN_POINT('',(7.62000024318695,24.2007762955474,2.54));
#1088=CARTESIAN_POINT('',(7.62000024318695,24.2007762955474,50.80000141859));
#1089=CARTESIAN_POINT('Origin',(19.050000243187,24.2007762955474,2.54));
#1090=CARTESIAN_POINT('Origin',(7.62000024318695,-2.33295215237571E-16,
0.));
#1091=CARTESIAN_POINT('',(7.62000024318695,-2.33295215237571E-16,2.54));
#1092=CARTESIAN_POINT('',(7.62000024318695,-2.33295215237571E-16,0.));
#1093=CARTESIAN_POINT('',(7.62000024318695,11.7475004053116,2.54));
#1094=CARTESIAN_POINT('Origin',(3.81,0.,0.));
#1095=CARTESIAN_POINT('',(3.81,0.,12.7));
#1096=CARTESIAN_POINT('',(3.81,0.,12.7));
#1097=CARTESIAN_POINT('',(3.81,0.,0.));
#1098=CARTESIAN_POINT('',(3.81,0.,0.));
#1099=CARTESIAN_POINT('',(5.08000024318695,-7.77650816731269E-17,0.));
#1100=CARTESIAN_POINT('',(3.81,0.,0.));
#1101=CARTESIAN_POINT('Origin',(5.08000024318695,0.,2.54));
#1102=CARTESIAN_POINT('Origin',(-6.98499981760979,33.0200016212463,-2.54));
#1103=CARTESIAN_POINT('',(5.08000024318695,33.0200016212463,0.));
#1104=CARTESIAN_POINT('',(-6.98499981760979,33.0200016212463,0.));
#1105=CARTESIAN_POINT('Origin',(5.08000024318695,33.0200016212463,-2.54));
#1106=CARTESIAN_POINT('Origin',(19.050000243187,24.2007762955474,2.54));
#1107=CARTESIAN_POINT('',(5.08000024318695,24.2007762955474,0.));
#1108=CARTESIAN_POINT('Origin',(5.08000024318695,24.2007762955474,2.54));
#1109=CARTESIAN_POINT('Origin',(19.050000243187,24.2007762955474,0.));
#1110=CARTESIAN_POINT('Origin',(5.08000024318695,11.7475004053116,2.54));
#1111=CARTESIAN_POINT('',(5.08000024318695,11.7475004053116,0.));
#1112=CARTESIAN_POINT('Origin',(5.08000024318695,33.3375012159348,-2.54));
#1113=CARTESIAN_POINT('',(7.62000024318695,50.8000016212463,-2.54));
#1114=CARTESIAN_POINT('',(5.08000024318695,50.8000010787926,0.));
#1115=CARTESIAN_POINT('Origin',(5.08000024318695,50.8000010787926,-2.54));
#1116=CARTESIAN_POINT('',(7.62000024318695,33.3375012159348,-2.54));
#1117=CARTESIAN_POINT('',(5.08000024318695,33.3375012159348,0.));
#1118=CARTESIAN_POINT('Origin',(-21.5899998784065,23.4950008106232,0.));
#1119=CARTESIAN_POINT('',(-3.81,-2.33295215237571E-16,0.));
#1120=CARTESIAN_POINT('Origin',(0.,0.,0.));
#1121=CARTESIAN_POINT('',(-50.8,-2.33295215237571E-16,0.));
#1122=CARTESIAN_POINT('',(-50.8,-2.33295215237571E-16,0.));
#1123=CARTESIAN_POINT('',(0.000777430332037365,50.7999999940512,0.));
#1124=CARTESIAN_POINT('Origin',(0.,0.,0.));
#1125=CARTESIAN_POINT('',(7.62000024318695,50.8000016212463,0.));
#1126=CARTESIAN_POINT('',(-1.4986,-1.83525569320222E-16,0.));
#1127=CARTESIAN_POINT('Origin',(0.,0.,0.));
#1128=CARTESIAN_POINT('',(3.81,26.6274028391805,0.));
#1129=CARTESIAN_POINT('',(3.81,23.5957797489297,0.));
#1130=CARTESIAN_POINT('',(3.81,0.,0.));
#1131=CARTESIAN_POINT('',(-26.710560775843,3.175,0.));
#1132=CARTESIAN_POINT('Origin',(0.,0.,0.));
#1133=CARTESIAN_POINT('',(-23.6895820343036,3.175,0.));
#1134=CARTESIAN_POINT('',(-2.10605674187568,3.175,0.));
#1135=CARTESIAN_POINT('Origin',(0.,0.,0.));
#1136=CARTESIAN_POINT('Origin',(5.08000024318695,33.3375012159348,15.24));
#1137=CARTESIAN_POINT('',(7.62000024318695,50.8000016212463,15.24));
#1138=CARTESIAN_POINT('',(5.08000024318695,50.8000010787926,12.7));
#1139=CARTESIAN_POINT('Origin',(5.08000024318695,50.8000010787926,15.24));
#1140=CARTESIAN_POINT('',(5.08000024318695,33.3375012159348,12.7));
#1141=CARTESIAN_POINT('',(7.62000024318695,33.3375012159348,15.24));
#1142=CARTESIAN_POINT('Origin',(7.62000024318695,43.1800016212463,6.35));
#1143=CARTESIAN_POINT('',(7.62000024318695,50.8000016212463,-38.10000141859));
#1144=CARTESIAN_POINT('',(7.62000024318695,41.1861016212463,43.8531));
#1145=CARTESIAN_POINT('Origin',(7.62000024318695,43.1800016212463,43.8531));
#1146=CARTESIAN_POINT('Origin',(7.62000024318695,43.1800016212463,6.35));
#1147=CARTESIAN_POINT('',(7.62000024318695,50.8000016212463,-38.10000141859));
#1148=CARTESIAN_POINT('',(7.62000024318695,41.1861016212464,-31.1531));
#1149=CARTESIAN_POINT('Origin',(7.62000024318695,43.1800016212464,-31.1531));
#1150=CARTESIAN_POINT('Origin',(7.62000024318695,43.1800016212463,43.8531));
#1151=CARTESIAN_POINT('',(7.62000024318695,41.1861016212463,43.8531));
#1152=CARTESIAN_POINT('Origin',(7.62000024318695,43.1800016212464,-31.1531));
#1153=CARTESIAN_POINT('',(7.62000024318695,41.1861016212464,-31.1531));
#1154=CARTESIAN_POINT('Origin',(7.62000024318695,50.8000016212463,-38.10000141859));
#1155=CARTESIAN_POINT('',(7.62000024318695,50.8000016212463,-38.10000141859));
#1156=CARTESIAN_POINT('Origin',(0.,0.,0.));
#1157=CARTESIAN_POINT('',(-1.4986,0.,12.7));
#1158=CARTESIAN_POINT('Origin',(0.,0.,12.7));
#1159=CARTESIAN_POINT('',(-1.4986,-1.83525569320222E-16,0.));
#1160=CARTESIAN_POINT('Origin',(0.,0.,0.));
#1161=CARTESIAN_POINT('',(3.81,26.6274028391805,12.7));
#1162=CARTESIAN_POINT('',(3.81,26.6274028391805,0.));
#1163=CARTESIAN_POINT('',(-26.710560775843,3.175,12.7));
#1164=CARTESIAN_POINT('Origin',(0.,0.,12.7));
#1165=CARTESIAN_POINT('',(-26.710560775843,3.175,0.));
#1166=CARTESIAN_POINT('Origin',(-23.6895820343036,3.175,0.));
#1167=CARTESIAN_POINT('',(-23.6895820343036,3.175,12.7));
#1168=CARTESIAN_POINT('',(-2.10605674187568,3.175,12.7));
#1169=CARTESIAN_POINT('',(-23.6895820343036,3.175,0.));
#1170=CARTESIAN_POINT('Origin',(0.,0.,0.));
#1171=CARTESIAN_POINT('',(3.81,23.5957797489297,12.7));
#1172=CARTESIAN_POINT('Origin',(0.,0.,12.7));
#1173=CARTESIAN_POINT('',(3.81,23.5957797489297,0.));
#1174=CARTESIAN_POINT('Origin',(3.81,26.6274028391805,0.));
#1175=CARTESIAN_POINT('',(3.81,0.,12.7));
#1176=CARTESIAN_POINT('Origin',(0.,0.,0.));
#1177=CARTESIAN_POINT('',(-3.81,0.,12.7));
#1178=CARTESIAN_POINT('Origin',(0.,0.,12.7));
#1179=CARTESIAN_POINT('',(-3.81,-2.33295215237571E-16,0.));
#1180=CARTESIAN_POINT('Origin',(-50.8,-2.33295215237571E-16,0.));
#1181=CARTESIAN_POINT('',(-50.8,0.,12.7));
#1182=CARTESIAN_POINT('',(-50.8,-2.33295215237571E-16,12.7));
#1183=CARTESIAN_POINT('',(-50.8,-2.33295215237571E-16,0.));
#1184=CARTESIAN_POINT('Origin',(0.,0.,0.));
#1185=CARTESIAN_POINT('',(0.000777430332037365,50.7999999940512,12.7));
#1186=CARTESIAN_POINT('Origin',(0.,0.,12.7));
#1187=CARTESIAN_POINT('',(0.000777430332037365,50.7999999940512,0.));
#1188=CARTESIAN_POINT('Origin',(7.62000024318695,50.8000016212463,0.));
#1189=CARTESIAN_POINT('',(7.62000024318695,50.8000016212463,12.7));
#1190=CARTESIAN_POINT('Origin',(-21.5899998784065,23.4950008106232,12.7));
#1191=UNCERTAINTY_MEASURE_WITH_UNIT(LENGTH_MEASURE(0.01),#1195,
'DISTANCE_ACCURACY_VALUE',
'Maximum model space distance between geometric entities at asserted c
onnectivities');
#1192=UNCERTAINTY_MEASURE_WITH_UNIT(LENGTH_MEASURE(0.01),#1195,
'DISTANCE_ACCURACY_VALUE',
'Maximum model space distance between geometric entities at asserted c
onnectivities');
#1193=(
GEOMETRIC_REPRESENTATION_CONTEXT(3)
GLOBAL_UNCERTAINTY_ASSIGNED_CONTEXT((#1191))
GLOBAL_UNIT_ASSIGNED_CONTEXT((#1195,#1197,#1198))
REPRESENTATION_CONTEXT('','3D')
);
#1194=(
GEOMETRIC_REPRESENTATION_CONTEXT(3)
GLOBAL_UNCERTAINTY_ASSIGNED_CONTEXT((#1192))
GLOBAL_UNIT_ASSIGNED_CONTEXT((#1195,#1197,#1198))
REPRESENTATION_CONTEXT('','3D')
);
#1195=(
LENGTH_UNIT()
NAMED_UNIT(*)
SI_UNIT(.MILLI.,.METRE.)
);
#1196=(
LENGTH_UNIT()
NAMED_UNIT(*)
SI_UNIT($,.METRE.)
);
#1197=(
NAMED_UNIT(*)
PLANE_ANGLE_UNIT()
SI_UNIT($,.RADIAN.)
);
#1198=(
NAMED_UNIT(*)
SI_UNIT($,.STERADIAN.)
SOLID_ANGLE_UNIT()
);
#1199=SHAPE_DEFINITION_REPRESENTATION(#1200,#1201);
#1200=PRODUCT_DEFINITION_SHAPE('',$,#1203);
#1201=SHAPE_REPRESENTATION('',(#659),#1193);
#1202=PRODUCT_DEFINITION_CONTEXT('part definition',#1207,'design');
#1203=PRODUCT_DEFINITION('2026-08-12-16-34-56-645',
'MAE148_Titlted_Camera_Wheel',#1204,#1202);
#1204=PRODUCT_DEFINITION_FORMATION('',$,#1209);
#1205=PRODUCT_RELATED_PRODUCT_CATEGORY('MAE148_Titlted_Camera_Wheel',
'MAE148_Titlted_Camera_Wheel',(#1209));
#1206=APPLICATION_PROTOCOL_DEFINITION('international standard',
'automotive_design',2009,#1207);
#1207=APPLICATION_CONTEXT(
'Core Data for Automotive Mechanical Design Process');
#1208=PRODUCT_CONTEXT('part definition',#1207,'mechanical');
#1209=PRODUCT('2026-08-12-16-34-56-645','MAE148_Titlted_Camera_Wheel',$,
(#1208));
#1210=PRESENTATION_STYLE_ASSIGNMENT((#1211));
#1211=SURFACE_STYLE_USAGE(.BOTH.,#1212);
#1212=SURFACE_SIDE_STYLE('',(#1213));
#1213=SURFACE_STYLE_FILL_AREA(#1214);
#1214=FILL_AREA_STYLE('Steel - Satin',(#1215));
#1215=FILL_AREA_STYLE_COLOUR('Steel - Satin',#1216);
#1216=COLOUR_RGB('Steel - Satin',0.627450980392157,0.627450980392157,0.627450980392157);
ENDSEC;
END-ISO-10303-21;
