ISO-10303-21;
HEADER;
/* Generated by software containing ST-Developer
 * from STEP Tools, Inc. (www.steptools.com) 
 */

FILE_DESCRIPTION(
/* description */ (''),
/* implementation_level */ '2;1');

FILE_NAME(
/* name */ 'MAE148_Titlted_Camera.step',
/* time_stamp */ '2026-09-04T18:40:56-07:00',
/* author */ (''),
/* organization */ (''),
/* preprocessor_version */ 'ST-DEVELOPER v20.1',
/* originating_system */ 'Autodesk Translation Framework v15.8.0.0',
/* authorisation */ '');

FILE_SCHEMA (('AUTOMOTIVE_DESIGN { 1 0 10303 214 3 1 1 }'));
ENDSEC;

DATA;
#10=MECHANICAL_DESIGN_GEOMETRIC_PRESENTATION_REPRESENTATION('',(#13),#1217);
#11=SHAPE_REPRESENTATION_RELATIONSHIP('SRR','None',#1224,#12);
#12=ADVANCED_BREP_SHAPE_REPRESENTATION('',(#14),#1216);
#13=STYLED_ITEM('',(#1233),#14);
#14=MANIFOLD_SOLID_BREP('Body6',#717);
#15=FACE_BOUND('',#135,.T.);
#16=FACE_BOUND('',#136,.T.);
#17=FACE_BOUND('',#137,.T.);
#18=FACE_BOUND('',#138,.T.);
#19=FACE_BOUND('',#139,.T.);
#20=FACE_BOUND('',#141,.T.);
#21=FACE_BOUND('',#142,.T.);
#22=FACE_BOUND('',#143,.T.);
#23=FACE_BOUND('',#144,.T.);
#24=FACE_BOUND('',#145,.T.);
#25=FACE_BOUND('',#146,.T.);
#26=FACE_BOUND('',#153,.T.);
#27=FACE_BOUND('',#154,.T.);
#28=FACE_BOUND('',#155,.T.);
#29=FACE_BOUND('',#156,.T.);
#30=FACE_BOUND('',#157,.T.);
#31=FACE_BOUND('',#159,.T.);
#32=FACE_BOUND('',#160,.T.);
#33=FACE_BOUND('',#161,.T.);
#34=FACE_BOUND('',#162,.T.);
#35=FACE_BOUND('',#163,.T.);
#36=FACE_BOUND('',#182,.T.);
#37=FACE_BOUND('',#183,.T.);
#38=FACE_BOUND('',#184,.T.);
#39=FACE_BOUND('',#185,.T.);
#40=FACE_BOUND('',#186,.T.);
#41=FACE_BOUND('',#193,.T.);
#42=FACE_BOUND('',#194,.T.);
#43=FACE_BOUND('',#195,.T.);
#44=FACE_BOUND('',#196,.T.);
#45=CIRCLE('',#741,12.7);
#46=CIRCLE('',#742,1.4986);
#47=CIRCLE('',#743,1.4986);
#48=CIRCLE('',#744,1.4986);
#49=CIRCLE('',#745,1.499997);
#50=CIRCLE('',#746,1.4986);
#51=CIRCLE('',#748,2.49999499999999);
#52=CIRCLE('',#749,2.499995);
#53=CIRCLE('',#750,2.49999499999999);
#54=CIRCLE('',#751,2.499995);
#55=CIRCLE('',#762,12.7);
#56=CIRCLE('',#763,1.4986);
#57=CIRCLE('',#764,1.4986);
#58=CIRCLE('',#765,1.4986);
#59=CIRCLE('',#766,1.499997);
#60=CIRCLE('',#767,1.4986);
#61=CIRCLE('',#769,12.7);
#62=CIRCLE('',#770,1.4986);
#63=CIRCLE('',#771,1.499997);
#64=CIRCLE('',#772,1.4986);
#65=CIRCLE('',#773,1.4986);
#66=CIRCLE('',#774,1.4986);
#67=CIRCLE('',#776,12.7);
#68=CIRCLE('',#779,2.499995);
#69=CIRCLE('',#781,2.49999499999999);
#70=CIRCLE('',#783,2.499995);
#71=CIRCLE('',#785,2.49999499999999);
#72=CIRCLE('',#787,1.4986);
#73=CIRCLE('',#790,1.4986);
#74=CIRCLE('',#793,1.4986);
#75=CIRCLE('',#796,1.499997);
#76=CIRCLE('',#799,1.4986);
#77=PLANE('',#739);
#78=PLANE('',#740);
#79=PLANE('',#747);
#80=PLANE('',#760);
#81=PLANE('',#761);
#82=PLANE('',#768);
#83=PLANE('',#801);
#84=PLANE('',#802);
#85=PLANE('',#803);
#86=PLANE('',#804);
#87=PLANE('',#805);
#88=PLANE('',#806);
#89=PLANE('',#807);
#90=PLANE('',#808);
#91=FACE_OUTER_BOUND('',#129,.T.);
#92=FACE_OUTER_BOUND('',#130,.T.);
#93=FACE_OUTER_BOUND('',#131,.T.);
#94=FACE_OUTER_BOUND('',#132,.T.);
#95=FACE_OUTER_BOUND('',#133,.T.);
#96=FACE_OUTER_BOUND('',#134,.T.);
#97=FACE_OUTER_BOUND('',#140,.T.);
#98=FACE_OUTER_BOUND('',#147,.T.);
#99=FACE_OUTER_BOUND('',#148,.T.);
#100=FACE_OUTER_BOUND('',#149,.T.);
#101=FACE_OUTER_BOUND('',#150,.T.);
#102=FACE_OUTER_BOUND('',#151,.T.);
#103=FACE_OUTER_BOUND('',#152,.T.);
#104=FACE_OUTER_BOUND('',#158,.T.);
#105=FACE_OUTER_BOUND('',#164,.T.);
#106=FACE_OUTER_BOUND('',#165,.T.);
#107=FACE_OUTER_BOUND('',#166,.T.);
#108=FACE_OUTER_BOUND('',#167,.T.);
#109=FACE_OUTER_BOUND('',#168,.T.);
#110=FACE_OUTER_BOUND('',#169,.T.);
#111=FACE_OUTER_BOUND('',#170,.T.);
#112=FACE_OUTER_BOUND('',#171,.T.);
#113=FACE_OUTER_BOUND('',#172,.T.);
#114=FACE_OUTER_BOUND('',#173,.T.);
#115=FACE_OUTER_BOUND('',#174,.T.);
#116=FACE_OUTER_BOUND('',#175,.T.);
#117=FACE_OUTER_BOUND('',#176,.T.);
#118=FACE_OUTER_BOUND('',#177,.T.);
#119=FACE_OUTER_BOUND('',#178,.T.);
#120=FACE_OUTER_BOUND('',#179,.T.);
#121=FACE_OUTER_BOUND('',#180,.T.);
#122=FACE_OUTER_BOUND('',#181,.T.);
#123=FACE_OUTER_BOUND('',#187,.T.);
#124=FACE_OUTER_BOUND('',#188,.T.);
#125=FACE_OUTER_BOUND('',#189,.T.);
#126=FACE_OUTER_BOUND('',#190,.T.);
#127=FACE_OUTER_BOUND('',#191,.T.);
#128=FACE_OUTER_BOUND('',#192,.T.);
#129=EDGE_LOOP('',(#467,#468,#469,#470));
#130=EDGE_LOOP('',(#471,#472,#473,#474));
#131=EDGE_LOOP('',(#475,#476,#477,#478));
#132=EDGE_LOOP('',(#479,#480,#481,#482));
#133=EDGE_LOOP('',(#483,#484,#485,#486));
#134=EDGE_LOOP('',(#487,#488,#489,#490));
#135=EDGE_LOOP('',(#491));
#136=EDGE_LOOP('',(#492));
#137=EDGE_LOOP('',(#493));
#138=EDGE_LOOP('',(#494));
#139=EDGE_LOOP('',(#495));
#140=EDGE_LOOP('',(#496,#497,#498,#499));
#141=EDGE_LOOP('',(#500,#501,#502,#503));
#142=EDGE_LOOP('',(#504));
#143=EDGE_LOOP('',(#505));
#144=EDGE_LOOP('',(#506));
#145=EDGE_LOOP('',(#507));
#146=EDGE_LOOP('',(#508,#509,#510,#511));
#147=EDGE_LOOP('',(#512,#513,#514,#515));
#148=EDGE_LOOP('',(#516,#517,#518,#519));
#149=EDGE_LOOP('',(#520,#521,#522,#523));
#150=EDGE_LOOP('',(#524,#525,#526,#527));
#151=EDGE_LOOP('',(#528,#529,#530,#531));
#152=EDGE_LOOP('',(#532,#533,#534,#535));
#153=EDGE_LOOP('',(#536));
#154=EDGE_LOOP('',(#537));
#155=EDGE_LOOP('',(#538));
#156=EDGE_LOOP('',(#539));
#157=EDGE_LOOP('',(#540));
#158=EDGE_LOOP('',(#541,#542,#543,#544));
#159=EDGE_LOOP('',(#545));
#160=EDGE_LOOP('',(#546));
#161=EDGE_LOOP('',(#547));
#162=EDGE_LOOP('',(#548));
#163=EDGE_LOOP('',(#549));
#164=EDGE_LOOP('',(#550,#551,#552,#553));
#165=EDGE_LOOP('',(#554,#555,#556,#557));
#166=EDGE_LOOP('',(#558,#559,#560,#561));
#167=EDGE_LOOP('',(#562,#563,#564,#565));
#168=EDGE_LOOP('',(#566,#567,#568,#569));
#169=EDGE_LOOP('',(#570,#571,#572,#573));
#170=EDGE_LOOP('',(#574,#575,#576,#577));
#171=EDGE_LOOP('',(#578,#579,#580,#581));
#172=EDGE_LOOP('',(#582,#583,#584,#585));
#173=EDGE_LOOP('',(#586,#587,#588,#589));
#174=EDGE_LOOP('',(#590,#591,#592,#593));
#175=EDGE_LOOP('',(#594,#595,#596,#597));
#176=EDGE_LOOP('',(#598,#599,#600,#601));
#177=EDGE_LOOP('',(#602,#603,#604,#605));
#178=EDGE_LOOP('',(#606,#607,#608,#609));
#179=EDGE_LOOP('',(#610,#611,#612,#613));
#180=EDGE_LOOP('',(#614,#615,#616,#617));
#181=EDGE_LOOP('',(#618,#619,#620,#621));
#182=EDGE_LOOP('',(#622));
#183=EDGE_LOOP('',(#623));
#184=EDGE_LOOP('',(#624));
#185=EDGE_LOOP('',(#625));
#186=EDGE_LOOP('',(#626));
#187=EDGE_LOOP('',(#627,#628,#629,#630));
#188=EDGE_LOOP('',(#631,#632,#633,#634));
#189=EDGE_LOOP('',(#635,#636,#637,#638));
#190=EDGE_LOOP('',(#639,#640,#641,#642));
#191=EDGE_LOOP('',(#643,#644,#645,#646));
#192=EDGE_LOOP('',(#647,#648,#649,#650));
#193=EDGE_LOOP('',(#651));
#194=EDGE_LOOP('',(#652));
#195=EDGE_LOOP('',(#653));
#196=EDGE_LOOP('',(#654));
#197=ELLIPSE('',#732,7.18420489685534,5.08);
#198=ELLIPSE('',#733,7.18420489685533,5.08);
#199=ELLIPSE('',#735,7.18420489685532,5.08);
#200=ELLIPSE('',#737,7.18420489685532,5.08);
#201=ELLIPSE('',#753,7.18420489685534,5.08);
#202=ELLIPSE('',#754,7.18420489685534,5.08);
#203=ELLIPSE('',#756,7.18420489685532,5.08);
#204=ELLIPSE('',#758,7.18420489685532,5.08);
#205=LINE('',#1025,#259);
#206=LINE('',#1029,#260);
#207=LINE('',#1033,#261);
#208=LINE('',#1036,#262);
#209=LINE('',#1039,#263);
#210=LINE('',#1041,#264);
#211=LINE('',#1044,#265);
#212=LINE('',#1045,#266);
#213=LINE('',#1048,#267);
#214=LINE('',#1050,#268);
#215=LINE('',#1051,#269);
#216=LINE('',#1054,#270);
#217=LINE('',#1069,#271);
#218=LINE('',#1071,#272);
#219=LINE('',#1073,#273);
#220=LINE('',#1074,#274);
#221=LINE('',#1077,#275);
#222=LINE('',#1079,#276);
#223=LINE('',#1081,#277);
#224=LINE('',#1082,#278);
#225=LINE('',#1095,#279);
#226=LINE('',#1099,#280);
#227=LINE('',#1103,#281);
#228=LINE('',#1106,#282);
#229=LINE('',#1109,#283);
#230=LINE('',#1111,#284);
#231=LINE('',#1112,#285);
#232=LINE('',#1115,#286);
#233=LINE('',#1130,#287);
#234=LINE('',#1143,#288);
#235=LINE('',#1146,#289);
#236=LINE('',#1149,#290);
#237=LINE('',#1153,#291);
#238=LINE('',#1157,#292);
#239=LINE('',#1161,#293);
#240=LINE('',#1165,#294);
#241=LINE('',#1168,#295);
#242=LINE('',#1171,#296);
#243=LINE('',#1174,#297);
#244=LINE('',#1177,#298);
#245=LINE('',#1180,#299);
#246=LINE('',#1183,#300);
#247=LINE('',#1186,#301);
#248=LINE('',#1189,#302);
#249=LINE('',#1192,#303);
#250=LINE('',#1195,#304);
#251=LINE('',#1200,#305);
#252=LINE('',#1201,#306);
#253=LINE('',#1202,#307);
#254=LINE('',#1205,#308);
#255=LINE('',#1206,#309);
#256=LINE('',#1209,#310);
#257=LINE('',#1210,#311);
#258=LINE('',#1212,#312);
#259=VECTOR('',#813,10.);
#260=VECTOR('',#816,10.);
#261=VECTOR('',#821,10.);
#262=VECTOR('',#824,10.);
#263=VECTOR('',#827,10.);
#264=VECTOR('',#828,10.);
#265=VECTOR('',#833,10.);
#266=VECTOR('',#834,10.);
#267=VECTOR('',#837,10.);
#268=VECTOR('',#838,10.);
#269=VECTOR('',#839,10.);
#270=VECTOR('',#842,10.);
#271=VECTOR('',#857,10.);
#272=VECTOR('',#858,10.);
#273=VECTOR('',#859,10.);
#274=VECTOR('',#860,10.);
#275=VECTOR('',#861,10.);
#276=VECTOR('',#862,10.);
#277=VECTOR('',#863,10.);
#278=VECTOR('',#864,10.);
#279=VECTOR('',#877,10.);
#280=VECTOR('',#882,10.);
#281=VECTOR('',#887,10.);
#282=VECTOR('',#892,10.);
#283=VECTOR('',#895,10.);
#284=VECTOR('',#896,10.);
#285=VECTOR('',#897,10.);
#286=VECTOR('',#900,10.);
#287=VECTOR('',#917,10.);
#288=VECTOR('',#930,10.);
#289=VECTOR('',#935,10.);
#290=VECTOR('',#938,2.499995);
#291=VECTOR('',#943,2.49999499999999);
#292=VECTOR('',#948,2.499995);
#293=VECTOR('',#953,2.49999499999999);
#294=VECTOR('',#958,1.4986);
#295=VECTOR('',#963,1.4986);
#296=VECTOR('',#966,1.4986);
#297=VECTOR('',#971,1.4986);
#298=VECTOR('',#974,1.4986);
#299=VECTOR('',#979,1.4986);
#300=VECTOR('',#982,1.499997);
#301=VECTOR('',#987,1.499997);
#302=VECTOR('',#990,1.4986);
#303=VECTOR('',#995,1.4986);
#304=VECTOR('',#1000,10.);
#305=VECTOR('',#1005,10.);
#306=VECTOR('',#1006,10.);
#307=VECTOR('',#1007,10.);
#308=VECTOR('',#1010,10.);
#309=VECTOR('',#1011,10.);
#310=VECTOR('',#1014,10.);
#311=VECTOR('',#1015,10.);
#312=VECTOR('',#1018,10.);
#313=VERTEX_POINT('',#1023);
#314=VERTEX_POINT('',#1024);
#315=VERTEX_POINT('',#1026);
#316=VERTEX_POINT('',#1028);
#317=VERTEX_POINT('',#1032);
#318=VERTEX_POINT('',#1034);
#319=VERTEX_POINT('',#1038);
#320=VERTEX_POINT('',#1040);
#321=VERTEX_POINT('',#1047);
#322=VERTEX_POINT('',#1049);
#323=VERTEX_POINT('',#1053);
#324=VERTEX_POINT('',#1056);
#325=VERTEX_POINT('',#1058);
#326=VERTEX_POINT('',#1060);
#327=VERTEX_POINT('',#1062);
#328=VERTEX_POINT('',#1064);
#329=VERTEX_POINT('',#1067);
#330=VERTEX_POINT('',#1068);
#331=VERTEX_POINT('',#1070);
#332=VERTEX_POINT('',#1072);
#333=VERTEX_POINT('',#1075);
#334=VERTEX_POINT('',#1076);
#335=VERTEX_POINT('',#1078);
#336=VERTEX_POINT('',#1080);
#337=VERTEX_POINT('',#1083);
#338=VERTEX_POINT('',#1085);
#339=VERTEX_POINT('',#1087);
#340=VERTEX_POINT('',#1089);
#341=VERTEX_POINT('',#1092);
#342=VERTEX_POINT('',#1094);
#343=VERTEX_POINT('',#1098);
#344=VERTEX_POINT('',#1102);
#345=VERTEX_POINT('',#1108);
#346=VERTEX_POINT('',#1110);
#347=VERTEX_POINT('',#1114);
#348=VERTEX_POINT('',#1117);
#349=VERTEX_POINT('',#1119);
#350=VERTEX_POINT('',#1121);
#351=VERTEX_POINT('',#1123);
#352=VERTEX_POINT('',#1125);
#353=VERTEX_POINT('',#1128);
#354=VERTEX_POINT('',#1131);
#355=VERTEX_POINT('',#1133);
#356=VERTEX_POINT('',#1135);
#357=VERTEX_POINT('',#1137);
#358=VERTEX_POINT('',#1139);
#359=VERTEX_POINT('',#1142);
#360=VERTEX_POINT('',#1148);
#361=VERTEX_POINT('',#1152);
#362=VERTEX_POINT('',#1156);
#363=VERTEX_POINT('',#1160);
#364=VERTEX_POINT('',#1164);
#365=VERTEX_POINT('',#1170);
#366=VERTEX_POINT('',#1176);
#367=VERTEX_POINT('',#1182);
#368=VERTEX_POINT('',#1188);
#369=VERTEX_POINT('',#1198);
#370=VERTEX_POINT('',#1199);
#371=VERTEX_POINT('',#1204);
#372=VERTEX_POINT('',#1208);
#373=EDGE_CURVE('',#313,#314,#205,.T.);
#374=EDGE_CURVE('',#314,#315,#197,.T.);
#375=EDGE_CURVE('',#315,#316,#206,.T.);
#376=EDGE_CURVE('',#316,#313,#198,.T.);
#377=EDGE_CURVE('',#316,#317,#207,.T.);
#378=EDGE_CURVE('',#317,#318,#199,.T.);
#379=EDGE_CURVE('',#318,#313,#208,.T.);
#380=EDGE_CURVE('',#319,#318,#209,.T.);
#381=EDGE_CURVE('',#317,#320,#210,.T.);
#382=EDGE_CURVE('',#320,#319,#200,.T.);
#383=EDGE_CURVE('',#314,#319,#211,.T.);
#384=EDGE_CURVE('',#320,#315,#212,.T.);
#385=EDGE_CURVE('',#316,#321,#213,.T.);
#386=EDGE_CURVE('',#322,#321,#214,.T.);
#387=EDGE_CURVE('',#317,#322,#215,.T.);
#388=EDGE_CURVE('',#315,#323,#216,.T.);
#389=EDGE_CURVE('',#321,#323,#45,.T.);
#390=EDGE_CURVE('',#324,#324,#46,.T.);
#391=EDGE_CURVE('',#325,#325,#47,.T.);
#392=EDGE_CURVE('',#326,#326,#48,.T.);
#393=EDGE_CURVE('',#327,#327,#49,.T.);
#394=EDGE_CURVE('',#328,#328,#50,.T.);
#395=EDGE_CURVE('',#329,#330,#217,.T.);
#396=EDGE_CURVE('',#330,#331,#218,.T.);
#397=EDGE_CURVE('',#331,#332,#219,.T.);
#398=EDGE_CURVE('',#332,#329,#220,.T.);
#399=EDGE_CURVE('',#333,#334,#221,.T.);
#400=EDGE_CURVE('',#335,#333,#222,.T.);
#401=EDGE_CURVE('',#336,#335,#223,.T.);
#402=EDGE_CURVE('',#334,#336,#224,.T.);
#403=EDGE_CURVE('',#337,#337,#51,.T.);
#404=EDGE_CURVE('',#338,#338,#52,.T.);
#405=EDGE_CURVE('',#339,#339,#53,.T.);
#406=EDGE_CURVE('',#340,#340,#54,.T.);
#407=EDGE_CURVE('',#334,#341,#201,.T.);
#408=EDGE_CURVE('',#341,#342,#225,.T.);
#409=EDGE_CURVE('',#342,#333,#202,.T.);
#410=EDGE_CURVE('',#342,#343,#226,.T.);
#411=EDGE_CURVE('',#343,#335,#203,.T.);
#412=EDGE_CURVE('',#343,#344,#227,.T.);
#413=EDGE_CURVE('',#344,#336,#204,.T.);
#414=EDGE_CURVE('',#344,#341,#228,.T.);
#415=EDGE_CURVE('',#342,#345,#229,.T.);
#416=EDGE_CURVE('',#346,#345,#230,.T.);
#417=EDGE_CURVE('',#343,#346,#231,.T.);
#418=EDGE_CURVE('',#341,#347,#232,.T.);
#419=EDGE_CURVE('',#345,#347,#55,.T.);
#420=EDGE_CURVE('',#348,#348,#56,.T.);
#421=EDGE_CURVE('',#349,#349,#57,.T.);
#422=EDGE_CURVE('',#350,#350,#58,.T.);
#423=EDGE_CURVE('',#351,#351,#59,.T.);
#424=EDGE_CURVE('',#352,#352,#60,.T.);
#425=EDGE_CURVE('',#353,#346,#61,.T.);
#426=EDGE_CURVE('',#344,#353,#233,.T.);
#427=EDGE_CURVE('',#354,#354,#62,.T.);
#428=EDGE_CURVE('',#355,#355,#63,.T.);
#429=EDGE_CURVE('',#356,#356,#64,.T.);
#430=EDGE_CURVE('',#357,#357,#65,.T.);
#431=EDGE_CURVE('',#358,#358,#66,.T.);
#432=EDGE_CURVE('',#323,#359,#234,.T.);
#433=EDGE_CURVE('',#359,#322,#67,.T.);
#434=EDGE_CURVE('',#347,#353,#235,.T.);
#435=EDGE_CURVE('',#340,#360,#236,.T.);
#436=EDGE_CURVE('',#360,#360,#68,.T.);
#437=EDGE_CURVE('',#339,#361,#237,.T.);
#438=EDGE_CURVE('',#361,#361,#69,.T.);
#439=EDGE_CURVE('',#338,#362,#238,.T.);
#440=EDGE_CURVE('',#362,#362,#70,.T.);
#441=EDGE_CURVE('',#337,#363,#239,.T.);
#442=EDGE_CURVE('',#363,#363,#71,.T.);
#443=EDGE_CURVE('',#324,#364,#240,.T.);
#444=EDGE_CURVE('',#364,#364,#72,.T.);
#445=EDGE_CURVE('',#358,#348,#241,.T.);
#446=EDGE_CURVE('',#325,#365,#242,.T.);
#447=EDGE_CURVE('',#365,#365,#73,.T.);
#448=EDGE_CURVE('',#357,#349,#243,.T.);
#449=EDGE_CURVE('',#326,#366,#244,.T.);
#450=EDGE_CURVE('',#366,#366,#74,.T.);
#451=EDGE_CURVE('',#356,#350,#245,.T.);
#452=EDGE_CURVE('',#327,#367,#246,.T.);
#453=EDGE_CURVE('',#367,#367,#75,.T.);
#454=EDGE_CURVE('',#355,#351,#247,.T.);
#455=EDGE_CURVE('',#328,#368,#248,.T.);
#456=EDGE_CURVE('',#368,#368,#76,.T.);
#457=EDGE_CURVE('',#354,#352,#249,.T.);
#458=EDGE_CURVE('',#320,#359,#250,.T.);
#459=EDGE_CURVE('',#369,#370,#251,.T.);
#460=EDGE_CURVE('',#370,#329,#252,.T.);
#461=EDGE_CURVE('',#369,#332,#253,.T.);
#462=EDGE_CURVE('',#371,#369,#254,.T.);
#463=EDGE_CURVE('',#371,#331,#255,.T.);
#464=EDGE_CURVE('',#372,#371,#256,.T.);
#465=EDGE_CURVE('',#372,#330,#257,.T.);
#466=EDGE_CURVE('',#370,#372,#258,.T.);
#467=ORIENTED_EDGE('',*,*,#373,.T.);
#468=ORIENTED_EDGE('',*,*,#374,.T.);
#469=ORIENTED_EDGE('',*,*,#375,.T.);
#470=ORIENTED_EDGE('',*,*,#376,.T.);
#471=ORIENTED_EDGE('',*,*,#377,.T.);
#472=ORIENTED_EDGE('',*,*,#378,.T.);
#473=ORIENTED_EDGE('',*,*,#379,.T.);
#474=ORIENTED_EDGE('',*,*,#376,.F.);
#475=ORIENTED_EDGE('',*,*,#380,.T.);
#476=ORIENTED_EDGE('',*,*,#378,.F.);
#477=ORIENTED_EDGE('',*,*,#381,.T.);
#478=ORIENTED_EDGE('',*,*,#382,.T.);
#479=ORIENTED_EDGE('',*,*,#383,.T.);
#480=ORIENTED_EDGE('',*,*,#382,.F.);
#481=ORIENTED_EDGE('',*,*,#384,.T.);
#482=ORIENTED_EDGE('',*,*,#374,.F.);
#483=ORIENTED_EDGE('',*,*,#377,.F.);
#484=ORIENTED_EDGE('',*,*,#385,.T.);
#485=ORIENTED_EDGE('',*,*,#386,.F.);
#486=ORIENTED_EDGE('',*,*,#387,.F.);
#487=ORIENTED_EDGE('',*,*,#375,.F.);
#488=ORIENTED_EDGE('',*,*,#388,.T.);
#489=ORIENTED_EDGE('',*,*,#389,.F.);
#490=ORIENTED_EDGE('',*,*,#385,.F.);
#491=ORIENTED_EDGE('',*,*,#390,.T.);
#492=ORIENTED_EDGE('',*,*,#391,.T.);
#493=ORIENTED_EDGE('',*,*,#392,.T.);
#494=ORIENTED_EDGE('',*,*,#393,.T.);
#495=ORIENTED_EDGE('',*,*,#394,.T.);
#496=ORIENTED_EDGE('',*,*,#395,.T.);
#497=ORIENTED_EDGE('',*,*,#396,.T.);
#498=ORIENTED_EDGE('',*,*,#397,.T.);
#499=ORIENTED_EDGE('',*,*,#398,.T.);
#500=ORIENTED_EDGE('',*,*,#399,.F.);
#501=ORIENTED_EDGE('',*,*,#400,.F.);
#502=ORIENTED_EDGE('',*,*,#401,.F.);
#503=ORIENTED_EDGE('',*,*,#402,.F.);
#504=ORIENTED_EDGE('',*,*,#403,.T.);
#505=ORIENTED_EDGE('',*,*,#404,.T.);
#506=ORIENTED_EDGE('',*,*,#405,.T.);
#507=ORIENTED_EDGE('',*,*,#406,.T.);
#508=ORIENTED_EDGE('',*,*,#373,.F.);
#509=ORIENTED_EDGE('',*,*,#379,.F.);
#510=ORIENTED_EDGE('',*,*,#380,.F.);
#511=ORIENTED_EDGE('',*,*,#383,.F.);
#512=ORIENTED_EDGE('',*,*,#399,.T.);
#513=ORIENTED_EDGE('',*,*,#407,.T.);
#514=ORIENTED_EDGE('',*,*,#408,.T.);
#515=ORIENTED_EDGE('',*,*,#409,.T.);
#516=ORIENTED_EDGE('',*,*,#410,.T.);
#517=ORIENTED_EDGE('',*,*,#411,.T.);
#518=ORIENTED_EDGE('',*,*,#400,.T.);
#519=ORIENTED_EDGE('',*,*,#409,.F.);
#520=ORIENTED_EDGE('',*,*,#401,.T.);
#521=ORIENTED_EDGE('',*,*,#411,.F.);
#522=ORIENTED_EDGE('',*,*,#412,.T.);
#523=ORIENTED_EDGE('',*,*,#413,.T.);
#524=ORIENTED_EDGE('',*,*,#402,.T.);
#525=ORIENTED_EDGE('',*,*,#413,.F.);
#526=ORIENTED_EDGE('',*,*,#414,.T.);
#527=ORIENTED_EDGE('',*,*,#407,.F.);
#528=ORIENTED_EDGE('',*,*,#410,.F.);
#529=ORIENTED_EDGE('',*,*,#415,.T.);
#530=ORIENTED_EDGE('',*,*,#416,.F.);
#531=ORIENTED_EDGE('',*,*,#417,.F.);
#532=ORIENTED_EDGE('',*,*,#408,.F.);
#533=ORIENTED_EDGE('',*,*,#418,.T.);
#534=ORIENTED_EDGE('',*,*,#419,.F.);
#535=ORIENTED_EDGE('',*,*,#415,.F.);
#536=ORIENTED_EDGE('',*,*,#420,.T.);
#537=ORIENTED_EDGE('',*,*,#421,.T.);
#538=ORIENTED_EDGE('',*,*,#422,.T.);
#539=ORIENTED_EDGE('',*,*,#423,.T.);
#540=ORIENTED_EDGE('',*,*,#424,.T.);
#541=ORIENTED_EDGE('',*,*,#412,.F.);
#542=ORIENTED_EDGE('',*,*,#417,.T.);
#543=ORIENTED_EDGE('',*,*,#425,.F.);
#544=ORIENTED_EDGE('',*,*,#426,.F.);
#545=ORIENTED_EDGE('',*,*,#427,.T.);
#546=ORIENTED_EDGE('',*,*,#428,.T.);
#547=ORIENTED_EDGE('',*,*,#429,.T.);
#548=ORIENTED_EDGE('',*,*,#430,.T.);
#549=ORIENTED_EDGE('',*,*,#431,.T.);
#550=ORIENTED_EDGE('',*,*,#389,.T.);
#551=ORIENTED_EDGE('',*,*,#432,.T.);
#552=ORIENTED_EDGE('',*,*,#433,.T.);
#553=ORIENTED_EDGE('',*,*,#386,.T.);
#554=ORIENTED_EDGE('',*,*,#425,.T.);
#555=ORIENTED_EDGE('',*,*,#416,.T.);
#556=ORIENTED_EDGE('',*,*,#419,.T.);
#557=ORIENTED_EDGE('',*,*,#434,.T.);
#558=ORIENTED_EDGE('',*,*,#406,.F.);
#559=ORIENTED_EDGE('',*,*,#435,.T.);
#560=ORIENTED_EDGE('',*,*,#436,.F.);
#561=ORIENTED_EDGE('',*,*,#435,.F.);
#562=ORIENTED_EDGE('',*,*,#405,.F.);
#563=ORIENTED_EDGE('',*,*,#437,.T.);
#564=ORIENTED_EDGE('',*,*,#438,.F.);
#565=ORIENTED_EDGE('',*,*,#437,.F.);
#566=ORIENTED_EDGE('',*,*,#404,.F.);
#567=ORIENTED_EDGE('',*,*,#439,.T.);
#568=ORIENTED_EDGE('',*,*,#440,.F.);
#569=ORIENTED_EDGE('',*,*,#439,.F.);
#570=ORIENTED_EDGE('',*,*,#403,.F.);
#571=ORIENTED_EDGE('',*,*,#441,.T.);
#572=ORIENTED_EDGE('',*,*,#442,.F.);
#573=ORIENTED_EDGE('',*,*,#441,.F.);
#574=ORIENTED_EDGE('',*,*,#390,.F.);
#575=ORIENTED_EDGE('',*,*,#443,.T.);
#576=ORIENTED_EDGE('',*,*,#444,.F.);
#577=ORIENTED_EDGE('',*,*,#443,.F.);
#578=ORIENTED_EDGE('',*,*,#431,.F.);
#579=ORIENTED_EDGE('',*,*,#445,.T.);
#580=ORIENTED_EDGE('',*,*,#420,.F.);
#581=ORIENTED_EDGE('',*,*,#445,.F.);
#582=ORIENTED_EDGE('',*,*,#391,.F.);
#583=ORIENTED_EDGE('',*,*,#446,.T.);
#584=ORIENTED_EDGE('',*,*,#447,.F.);
#585=ORIENTED_EDGE('',*,*,#446,.F.);
#586=ORIENTED_EDGE('',*,*,#430,.F.);
#587=ORIENTED_EDGE('',*,*,#448,.T.);
#588=ORIENTED_EDGE('',*,*,#421,.F.);
#589=ORIENTED_EDGE('',*,*,#448,.F.);
#590=ORIENTED_EDGE('',*,*,#392,.F.);
#591=ORIENTED_EDGE('',*,*,#449,.T.);
#592=ORIENTED_EDGE('',*,*,#450,.F.);
#593=ORIENTED_EDGE('',*,*,#449,.F.);
#594=ORIENTED_EDGE('',*,*,#429,.F.);
#595=ORIENTED_EDGE('',*,*,#451,.T.);
#596=ORIENTED_EDGE('',*,*,#422,.F.);
#597=ORIENTED_EDGE('',*,*,#451,.F.);
#598=ORIENTED_EDGE('',*,*,#393,.F.);
#599=ORIENTED_EDGE('',*,*,#452,.T.);
#600=ORIENTED_EDGE('',*,*,#453,.F.);
#601=ORIENTED_EDGE('',*,*,#452,.F.);
#602=ORIENTED_EDGE('',*,*,#428,.F.);
#603=ORIENTED_EDGE('',*,*,#454,.T.);
#604=ORIENTED_EDGE('',*,*,#423,.F.);
#605=ORIENTED_EDGE('',*,*,#454,.F.);
#606=ORIENTED_EDGE('',*,*,#394,.F.);
#607=ORIENTED_EDGE('',*,*,#455,.T.);
#608=ORIENTED_EDGE('',*,*,#456,.F.);
#609=ORIENTED_EDGE('',*,*,#455,.F.);
#610=ORIENTED_EDGE('',*,*,#427,.F.);
#611=ORIENTED_EDGE('',*,*,#457,.T.);
#612=ORIENTED_EDGE('',*,*,#424,.F.);
#613=ORIENTED_EDGE('',*,*,#457,.F.);
#614=ORIENTED_EDGE('',*,*,#414,.F.);
#615=ORIENTED_EDGE('',*,*,#426,.T.);
#616=ORIENTED_EDGE('',*,*,#434,.F.);
#617=ORIENTED_EDGE('',*,*,#418,.F.);
#618=ORIENTED_EDGE('',*,*,#381,.F.);
#619=ORIENTED_EDGE('',*,*,#387,.T.);
#620=ORIENTED_EDGE('',*,*,#433,.F.);
#621=ORIENTED_EDGE('',*,*,#458,.F.);
#622=ORIENTED_EDGE('',*,*,#456,.T.);
#623=ORIENTED_EDGE('',*,*,#453,.T.);
#624=ORIENTED_EDGE('',*,*,#450,.T.);
#625=ORIENTED_EDGE('',*,*,#447,.T.);
#626=ORIENTED_EDGE('',*,*,#444,.T.);
#627=ORIENTED_EDGE('',*,*,#384,.F.);
#628=ORIENTED_EDGE('',*,*,#458,.T.);
#629=ORIENTED_EDGE('',*,*,#432,.F.);
#630=ORIENTED_EDGE('',*,*,#388,.F.);
#631=ORIENTED_EDGE('',*,*,#459,.T.);
#632=ORIENTED_EDGE('',*,*,#460,.T.);
#633=ORIENTED_EDGE('',*,*,#398,.F.);
#634=ORIENTED_EDGE('',*,*,#461,.F.);
#635=ORIENTED_EDGE('',*,*,#462,.T.);
#636=ORIENTED_EDGE('',*,*,#461,.T.);
#637=ORIENTED_EDGE('',*,*,#397,.F.);
#638=ORIENTED_EDGE('',*,*,#463,.F.);
#639=ORIENTED_EDGE('',*,*,#464,.T.);
#640=ORIENTED_EDGE('',*,*,#463,.T.);
#641=ORIENTED_EDGE('',*,*,#396,.F.);
#642=ORIENTED_EDGE('',*,*,#465,.F.);
#643=ORIENTED_EDGE('',*,*,#466,.T.);
#644=ORIENTED_EDGE('',*,*,#465,.T.);
#645=ORIENTED_EDGE('',*,*,#395,.F.);
#646=ORIENTED_EDGE('',*,*,#460,.F.);
#647=ORIENTED_EDGE('',*,*,#466,.F.);
#648=ORIENTED_EDGE('',*,*,#459,.F.);
#649=ORIENTED_EDGE('',*,*,#462,.F.);
#650=ORIENTED_EDGE('',*,*,#464,.F.);
#651=ORIENTED_EDGE('',*,*,#436,.T.);
#652=ORIENTED_EDGE('',*,*,#438,.T.);
#653=ORIENTED_EDGE('',*,*,#440,.T.);
#654=ORIENTED_EDGE('',*,*,#442,.T.);
#655=CYLINDRICAL_SURFACE('',#731,5.08);
#656=CYLINDRICAL_SURFACE('',#734,5.08);
#657=CYLINDRICAL_SURFACE('',#736,5.08);
#658=CYLINDRICAL_SURFACE('',#738,5.08);
#659=CYLINDRICAL_SURFACE('',#752,5.08);
#660=CYLINDRICAL_SURFACE('',#755,5.08);
#661=CYLINDRICAL_SURFACE('',#757,5.08);
#662=CYLINDRICAL_SURFACE('',#759,5.08);
#663=CYLINDRICAL_SURFACE('',#775,12.7);
#664=CYLINDRICAL_SURFACE('',#777,12.7);
#665=CYLINDRICAL_SURFACE('',#778,2.499995);
#666=CYLINDRICAL_SURFACE('',#780,2.49999499999999);
#667=CYLINDRICAL_SURFACE('',#782,2.499995);
#668=CYLINDRICAL_SURFACE('',#784,2.49999499999999);
#669=CYLINDRICAL_SURFACE('',#786,1.4986);
#670=CYLINDRICAL_SURFACE('',#788,1.4986);
#671=CYLINDRICAL_SURFACE('',#789,1.4986);
#672=CYLINDRICAL_SURFACE('',#791,1.4986);
#673=CYLINDRICAL_SURFACE('',#792,1.4986);
#674=CYLINDRICAL_SURFACE('',#794,1.4986);
#675=CYLINDRICAL_SURFACE('',#795,1.499997);
#676=CYLINDRICAL_SURFACE('',#797,1.499997);
#677=CYLINDRICAL_SURFACE('',#798,1.4986);
#678=CYLINDRICAL_SURFACE('',#800,1.4986);
#679=ADVANCED_FACE('',(#91),#655,.F.);
#680=ADVANCED_FACE('',(#92),#656,.F.);
#681=ADVANCED_FACE('',(#93),#657,.F.);
#682=ADVANCED_FACE('',(#94),#658,.F.);
#683=ADVANCED_FACE('',(#95),#77,.T.);
#684=ADVANCED_FACE('',(#96,#15,#16,#17,#18,#19),#78,.T.);
#685=ADVANCED_FACE('',(#97,#20,#21,#22,#23,#24,#25),#79,.T.);
#686=ADVANCED_FACE('',(#98),#659,.F.);
#687=ADVANCED_FACE('',(#99),#660,.F.);
#688=ADVANCED_FACE('',(#100),#661,.F.);
#689=ADVANCED_FACE('',(#101),#662,.F.);
#690=ADVANCED_FACE('',(#102),#80,.T.);
#691=ADVANCED_FACE('',(#103,#26,#27,#28,#29,#30),#81,.T.);
#692=ADVANCED_FACE('',(#104,#31,#32,#33,#34,#35),#82,.T.);
#693=ADVANCED_FACE('',(#105),#663,.T.);
#694=ADVANCED_FACE('',(#106),#664,.T.);
#695=ADVANCED_FACE('',(#107),#665,.F.);
#696=ADVANCED_FACE('',(#108),#666,.F.);
#697=ADVANCED_FACE('',(#109),#667,.F.);
#698=ADVANCED_FACE('',(#110),#668,.F.);
#699=ADVANCED_FACE('',(#111),#669,.F.);
#700=ADVANCED_FACE('',(#112),#670,.F.);
#701=ADVANCED_FACE('',(#113),#671,.F.);
#702=ADVANCED_FACE('',(#114),#672,.F.);
#703=ADVANCED_FACE('',(#115),#673,.F.);
#704=ADVANCED_FACE('',(#116),#674,.F.);
#705=ADVANCED_FACE('',(#117),#675,.F.);
#706=ADVANCED_FACE('',(#118),#676,.F.);
#707=ADVANCED_FACE('',(#119),#677,.F.);
#708=ADVANCED_FACE('',(#120),#678,.F.);
#709=ADVANCED_FACE('',(#121),#83,.T.);
#710=ADVANCED_FACE('',(#122,#36,#37,#38,#39,#40),#84,.T.);
#711=ADVANCED_FACE('',(#123),#85,.T.);
#712=ADVANCED_FACE('',(#124),#86,.T.);
#713=ADVANCED_FACE('',(#125),#87,.T.);
#714=ADVANCED_FACE('',(#126),#88,.T.);
#715=ADVANCED_FACE('',(#127),#89,.T.);
#716=ADVANCED_FACE('',(#128,#41,#42,#43,#44),#90,.F.);
#717=CLOSED_SHELL('',(#679,#680,#681,#682,#683,#684,#685,#686,#687,#688,
#689,#690,#691,#692,#693,#694,#695,#696,#697,#698,#699,#700,#701,#702,#703,
#704,#705,#706,#707,#708,#709,#710,#711,#712,#713,#714,#715,#716));
#718=DERIVED_UNIT_ELEMENT(#720,1.);
#719=DERIVED_UNIT_ELEMENT(#1219,-3.);
#720=(
MASS_UNIT()
NAMED_UNIT(*)
SI_UNIT(.KILO.,.GRAM.)
);
#721=DERIVED_UNIT((#718,#719));
#722=MEASURE_REPRESENTATION_ITEM('density measure',
POSITIVE_RATIO_MEASURE(7850.),#721);
#723=PROPERTY_DEFINITION_REPRESENTATION(#728,#725);
#724=PROPERTY_DEFINITION_REPRESENTATION(#729,#726);
#725=REPRESENTATION('material name',(#727),#1216);
#726=REPRESENTATION('density',(#722),#1216);
#727=DESCRIPTIVE_REPRESENTATION_ITEM('Steel','Steel');
#728=PROPERTY_DEFINITION('material property','material name',#1226);
#729=PROPERTY_DEFINITION('material property','density of part',#1226);
#730=AXIS2_PLACEMENT_3D('',#1021,#809,#810);
#731=AXIS2_PLACEMENT_3D('',#1022,#811,#812);
#732=AXIS2_PLACEMENT_3D('',#1027,#814,#815);
#733=AXIS2_PLACEMENT_3D('',#1030,#817,#818);
#734=AXIS2_PLACEMENT_3D('',#1031,#819,#820);
#735=AXIS2_PLACEMENT_3D('',#1035,#822,#823);
#736=AXIS2_PLACEMENT_3D('',#1037,#825,#826);
#737=AXIS2_PLACEMENT_3D('',#1042,#829,#830);
#738=AXIS2_PLACEMENT_3D('',#1043,#831,#832);
#739=AXIS2_PLACEMENT_3D('',#1046,#835,#836);
#740=AXIS2_PLACEMENT_3D('',#1052,#840,#841);
#741=AXIS2_PLACEMENT_3D('',#1055,#843,#844);
#742=AXIS2_PLACEMENT_3D('',#1057,#845,#846);
#743=AXIS2_PLACEMENT_3D('',#1059,#847,#848);
#744=AXIS2_PLACEMENT_3D('',#1061,#849,#850);
#745=AXIS2_PLACEMENT_3D('',#1063,#851,#852);
#746=AXIS2_PLACEMENT_3D('',#1065,#853,#854);
#747=AXIS2_PLACEMENT_3D('',#1066,#855,#856);
#748=AXIS2_PLACEMENT_3D('',#1084,#865,#866);
#749=AXIS2_PLACEMENT_3D('',#1086,#867,#868);
#750=AXIS2_PLACEMENT_3D('',#1088,#869,#870);
#751=AXIS2_PLACEMENT_3D('',#1090,#871,#872);
#752=AXIS2_PLACEMENT_3D('',#1091,#873,#874);
#753=AXIS2_PLACEMENT_3D('',#1093,#875,#876);
#754=AXIS2_PLACEMENT_3D('',#1096,#878,#879);
#755=AXIS2_PLACEMENT_3D('',#1097,#880,#881);
#756=AXIS2_PLACEMENT_3D('',#1100,#883,#884);
#757=AXIS2_PLACEMENT_3D('',#1101,#885,#886);
#758=AXIS2_PLACEMENT_3D('',#1104,#888,#889);
#759=AXIS2_PLACEMENT_3D('',#1105,#890,#891);
#760=AXIS2_PLACEMENT_3D('',#1107,#893,#894);
#761=AXIS2_PLACEMENT_3D('',#1113,#898,#899);
#762=AXIS2_PLACEMENT_3D('',#1116,#901,#902);
#763=AXIS2_PLACEMENT_3D('',#1118,#903,#904);
#764=AXIS2_PLACEMENT_3D('',#1120,#905,#906);
#765=AXIS2_PLACEMENT_3D('',#1122,#907,#908);
#766=AXIS2_PLACEMENT_3D('',#1124,#909,#910);
#767=AXIS2_PLACEMENT_3D('',#1126,#911,#912);
#768=AXIS2_PLACEMENT_3D('',#1127,#913,#914);
#769=AXIS2_PLACEMENT_3D('',#1129,#915,#916);
#770=AXIS2_PLACEMENT_3D('',#1132,#918,#919);
#771=AXIS2_PLACEMENT_3D('',#1134,#920,#921);
#772=AXIS2_PLACEMENT_3D('',#1136,#922,#923);
#773=AXIS2_PLACEMENT_3D('',#1138,#924,#925);
#774=AXIS2_PLACEMENT_3D('',#1140,#926,#927);
#775=AXIS2_PLACEMENT_3D('',#1141,#928,#929);
#776=AXIS2_PLACEMENT_3D('',#1144,#931,#932);
#777=AXIS2_PLACEMENT_3D('',#1145,#933,#934);
#778=AXIS2_PLACEMENT_3D('',#1147,#936,#937);
#779=AXIS2_PLACEMENT_3D('',#1150,#939,#940);
#780=AXIS2_PLACEMENT_3D('',#1151,#941,#942);
#781=AXIS2_PLACEMENT_3D('',#1154,#944,#945);
#782=AXIS2_PLACEMENT_3D('',#1155,#946,#947);
#783=AXIS2_PLACEMENT_3D('',#1158,#949,#950);
#784=AXIS2_PLACEMENT_3D('',#1159,#951,#952);
#785=AXIS2_PLACEMENT_3D('',#1162,#954,#955);
#786=AXIS2_PLACEMENT_3D('',#1163,#956,#957);
#787=AXIS2_PLACEMENT_3D('',#1166,#959,#960);
#788=AXIS2_PLACEMENT_3D('',#1167,#961,#962);
#789=AXIS2_PLACEMENT_3D('',#1169,#964,#965);
#790=AXIS2_PLACEMENT_3D('',#1172,#967,#968);
#791=AXIS2_PLACEMENT_3D('',#1173,#969,#970);
#792=AXIS2_PLACEMENT_3D('',#1175,#972,#973);
#793=AXIS2_PLACEMENT_3D('',#1178,#975,#976);
#794=AXIS2_PLACEMENT_3D('',#1179,#977,#978);
#795=AXIS2_PLACEMENT_3D('',#1181,#980,#981);
#796=AXIS2_PLACEMENT_3D('',#1184,#983,#984);
#797=AXIS2_PLACEMENT_3D('',#1185,#985,#986);
#798=AXIS2_PLACEMENT_3D('',#1187,#988,#989);
#799=AXIS2_PLACEMENT_3D('',#1190,#991,#992);
#800=AXIS2_PLACEMENT_3D('',#1191,#993,#994);
#801=AXIS2_PLACEMENT_3D('',#1193,#996,#997);
#802=AXIS2_PLACEMENT_3D('',#1194,#998,#999);
#803=AXIS2_PLACEMENT_3D('',#1196,#1001,#1002);
#804=AXIS2_PLACEMENT_3D('',#1197,#1003,#1004);
#805=AXIS2_PLACEMENT_3D('',#1203,#1008,#1009);
#806=AXIS2_PLACEMENT_3D('',#1207,#1012,#1013);
#807=AXIS2_PLACEMENT_3D('',#1211,#1016,#1017);
#808=AXIS2_PLACEMENT_3D('',#1213,#1019,#1020);
#809=DIRECTION('axis',(0.,0.,1.));
#810=DIRECTION('refdir',(1.,0.,0.));
#811=DIRECTION('center_axis',(0.,-1.,0.));
#812=DIRECTION('ref_axis',(-0.707106781186548,0.,-0.707106781186547));
#813=DIRECTION('',(0.,1.,0.));
#814=DIRECTION('center_axis',(-0.707106781186549,0.707106781186546,0.));
#815=DIRECTION('ref_axis',(0.707106781186546,0.707106781186549,0.));
#816=DIRECTION('',(0.,-1.,0.));
#817=DIRECTION('center_axis',(-0.707106781186548,-0.707106781186547,0.));
#818=DIRECTION('ref_axis',(-0.707106781186547,0.707106781186548,0.));
#819=DIRECTION('center_axis',(-1.,0.,0.));
#820=DIRECTION('ref_axis',(0.,0.707106781186547,-0.707106781186547));
#821=DIRECTION('',(-1.,0.,0.));
#822=DIRECTION('center_axis',(-0.707106781186548,0.707106781186548,3.09073318638538E-16));
#823=DIRECTION('ref_axis',(0.707106781186547,0.707106781186547,3.09073318638538E-16));
#824=DIRECTION('',(1.,0.,0.));
#825=DIRECTION('center_axis',(0.,1.,0.));
#826=DIRECTION('ref_axis',(0.707106781186548,0.,-0.707106781186547));
#827=DIRECTION('',(0.,-1.,0.));
#828=DIRECTION('',(0.,1.,0.));
#829=DIRECTION('center_axis',(0.707106781186548,0.707106781186548,0.));
#830=DIRECTION('ref_axis',(0.707106781186547,-0.707106781186547,0.));
#831=DIRECTION('center_axis',(1.,0.,0.));
#832=DIRECTION('ref_axis',(0.,-0.707106781186548,-0.707106781186547));
#833=DIRECTION('',(-1.,0.,0.));
#834=DIRECTION('',(1.,0.,0.));
#835=DIRECTION('center_axis',(0.,-1.,0.));
#836=DIRECTION('ref_axis',(1.,0.,0.));
#837=DIRECTION('',(0.,0.,1.));
#838=DIRECTION('',(1.,0.,0.));
#839=DIRECTION('',(0.,0.,1.));
#840=DIRECTION('center_axis',(1.,0.,0.));
#841=DIRECTION('ref_axis',(0.,1.,0.));
#842=DIRECTION('',(0.,0.,1.));
#843=DIRECTION('center_axis',(-1.,0.,0.));
#844=DIRECTION('ref_axis',(0.,0.707106781186548,0.707106781186547));
#845=DIRECTION('center_axis',(-1.,0.,0.));
#846=DIRECTION('ref_axis',(0.,1.,0.));
#847=DIRECTION('center_axis',(-1.,0.,0.));
#848=DIRECTION('ref_axis',(0.,1.,0.));
#849=DIRECTION('center_axis',(-1.,0.,0.));
#850=DIRECTION('ref_axis',(0.,1.,0.));
#851=DIRECTION('center_axis',(-1.,0.,0.));
#852=DIRECTION('ref_axis',(0.,1.,0.));
#853=DIRECTION('center_axis',(-1.,0.,0.));
#854=DIRECTION('ref_axis',(0.,1.,0.));
#855=DIRECTION('center_axis',(0.,0.,1.));
#856=DIRECTION('ref_axis',(1.,0.,0.));
#857=DIRECTION('',(0.,-1.,0.));
#858=DIRECTION('',(1.,0.,0.));
#859=DIRECTION('',(0.,1.,0.));
#860=DIRECTION('',(-1.,0.,0.));
#861=DIRECTION('',(6.99353086378051E-16,-1.,0.));
#862=DIRECTION('',(-1.,0.,0.));
#863=DIRECTION('',(0.,1.,0.));
#864=DIRECTION('',(1.,0.,0.));
#865=DIRECTION('center_axis',(0.,0.,-1.));
#866=DIRECTION('ref_axis',(-1.,0.,0.));
#867=DIRECTION('center_axis',(0.,0.,-1.));
#868=DIRECTION('ref_axis',(-1.,0.,0.));
#869=DIRECTION('center_axis',(0.,0.,-1.));
#870=DIRECTION('ref_axis',(-1.,0.,0.));
#871=DIRECTION('center_axis',(0.,0.,-1.));
#872=DIRECTION('ref_axis',(-1.,0.,0.));
#873=DIRECTION('center_axis',(-6.99353086378051E-16,1.,0.));
#874=DIRECTION('ref_axis',(0.707106781186547,0.,-0.707106781186548));
#875=DIRECTION('center_axis',(0.707106781186549,-0.707106781186546,-3.09073318638538E-16));
#876=DIRECTION('ref_axis',(-0.707106781186546,-0.707106781186549,3.09073318638537E-16));
#877=DIRECTION('',(-6.99353086378051E-16,1.,0.));
#878=DIRECTION('center_axis',(0.707106781186549,0.707106781186546,0.));
#879=DIRECTION('ref_axis',(0.707106781186546,-0.707106781186549,0.));
#880=DIRECTION('center_axis',(1.,0.,0.));
#881=DIRECTION('ref_axis',(0.,-0.707106781186548,-0.707106781186547));
#882=DIRECTION('',(1.,0.,0.));
#883=DIRECTION('center_axis',(0.707106781186548,-0.707106781186548,0.));
#884=DIRECTION('ref_axis',(-0.707106781186547,-0.707106781186547,0.));
#885=DIRECTION('center_axis',(0.,-1.,0.));
#886=DIRECTION('ref_axis',(-0.707106781186548,0.,-0.707106781186547));
#887=DIRECTION('',(0.,-1.,0.));
#888=DIRECTION('center_axis',(-0.707106781186548,-0.707106781186548,0.));
#889=DIRECTION('ref_axis',(-0.707106781186547,0.707106781186547,0.));
#890=DIRECTION('center_axis',(-1.,0.,0.));
#891=DIRECTION('ref_axis',(0.,0.707106781186547,-0.707106781186547));
#892=DIRECTION('',(-1.,0.,0.));
#893=DIRECTION('center_axis',(0.,1.,0.));
#894=DIRECTION('ref_axis',(-1.,0.,0.));
#895=DIRECTION('',(0.,0.,1.));
#896=DIRECTION('',(-1.,0.,0.));
#897=DIRECTION('',(0.,0.,1.));
#898=DIRECTION('center_axis',(-1.,-6.99353086378051E-16,0.));
#899=DIRECTION('ref_axis',(6.99353086378051E-16,-1.,0.));
#900=DIRECTION('',(0.,0.,1.));
#901=DIRECTION('center_axis',(1.,6.99353086378051E-16,0.));
#902=DIRECTION('ref_axis',(0.,-0.707106781186548,0.707106781186547));
#903=DIRECTION('center_axis',(1.,6.99353086378051E-16,0.));
#904=DIRECTION('ref_axis',(0.,1.,0.));
#905=DIRECTION('center_axis',(1.,6.99353086378051E-16,0.));
#906=DIRECTION('ref_axis',(0.,1.,0.));
#907=DIRECTION('center_axis',(1.,6.99353086378051E-16,0.));
#908=DIRECTION('ref_axis',(0.,1.,0.));
#909=DIRECTION('center_axis',(1.,6.99353086378051E-16,0.));
#910=DIRECTION('ref_axis',(0.,1.,0.));
#911=DIRECTION('center_axis',(1.,6.99353086378051E-16,0.));
#912=DIRECTION('ref_axis',(0.,1.,0.));
#913=DIRECTION('center_axis',(1.,0.,0.));
#914=DIRECTION('ref_axis',(0.,1.,0.));
#915=DIRECTION('center_axis',(-1.,0.,0.));
#916=DIRECTION('ref_axis',(0.,0.707106781186548,0.707106781186547));
#917=DIRECTION('',(0.,0.,1.));
#918=DIRECTION('center_axis',(-1.,0.,0.));
#919=DIRECTION('ref_axis',(0.,1.,0.));
#920=DIRECTION('center_axis',(-1.,0.,0.));
#921=DIRECTION('ref_axis',(0.,1.,0.));
#922=DIRECTION('center_axis',(-1.,0.,0.));
#923=DIRECTION('ref_axis',(0.,1.,0.));
#924=DIRECTION('center_axis',(-1.,0.,0.));
#925=DIRECTION('ref_axis',(0.,1.,0.));
#926=DIRECTION('center_axis',(-1.,0.,0.));
#927=DIRECTION('ref_axis',(0.,1.,0.));
#928=DIRECTION('center_axis',(1.,0.,0.));
#929=DIRECTION('ref_axis',(0.,-0.707106781186548,0.707106781186547));
#930=DIRECTION('',(-1.,0.,0.));
#931=DIRECTION('center_axis',(1.,0.,0.));
#932=DIRECTION('ref_axis',(0.,-0.707106781186548,0.707106781186547));
#933=DIRECTION('center_axis',(1.,0.,0.));
#934=DIRECTION('ref_axis',(0.,-0.707106781186548,0.707106781186547));
#935=DIRECTION('',(1.,0.,0.));
#936=DIRECTION('center_axis',(0.,0.,-1.));
#937=DIRECTION('ref_axis',(-1.,0.,0.));
#938=DIRECTION('',(0.,0.,-1.));
#939=DIRECTION('center_axis',(0.,0.,1.));
#940=DIRECTION('ref_axis',(-1.,0.,0.));
#941=DIRECTION('center_axis',(0.,0.,-1.));
#942=DIRECTION('ref_axis',(-1.,0.,0.));
#943=DIRECTION('',(0.,0.,-1.));
#944=DIRECTION('center_axis',(0.,0.,1.));
#945=DIRECTION('ref_axis',(-1.,0.,0.));
#946=DIRECTION('center_axis',(0.,0.,-1.));
#947=DIRECTION('ref_axis',(-1.,0.,0.));
#948=DIRECTION('',(0.,0.,-1.));
#949=DIRECTION('center_axis',(0.,0.,1.));
#950=DIRECTION('ref_axis',(-1.,0.,0.));
#951=DIRECTION('center_axis',(0.,0.,-1.));
#952=DIRECTION('ref_axis',(-1.,0.,0.));
#953=DIRECTION('',(0.,0.,-1.));
#954=DIRECTION('center_axis',(0.,0.,1.));
#955=DIRECTION('ref_axis',(-1.,0.,0.));
#956=DIRECTION('center_axis',(-1.,0.,0.));
#957=DIRECTION('ref_axis',(0.,1.,0.));
#958=DIRECTION('',(-1.,0.,0.));
#959=DIRECTION('center_axis',(1.,0.,0.));
#960=DIRECTION('ref_axis',(0.,1.,0.));
#961=DIRECTION('center_axis',(-1.,0.,0.));
#962=DIRECTION('ref_axis',(0.,1.,0.));
#963=DIRECTION('',(-1.,0.,0.));
#964=DIRECTION('center_axis',(-1.,0.,0.));
#965=DIRECTION('ref_axis',(0.,1.,0.));
#966=DIRECTION('',(-1.,0.,0.));
#967=DIRECTION('center_axis',(1.,0.,0.));
#968=DIRECTION('ref_axis',(0.,1.,0.));
#969=DIRECTION('center_axis',(-1.,0.,0.));
#970=DIRECTION('ref_axis',(0.,1.,0.));
#971=DIRECTION('',(-1.,0.,0.));
#972=DIRECTION('center_axis',(-1.,0.,0.));
#973=DIRECTION('ref_axis',(0.,1.,0.));
#974=DIRECTION('',(-1.,0.,0.));
#975=DIRECTION('center_axis',(1.,0.,0.));
#976=DIRECTION('ref_axis',(0.,1.,0.));
#977=DIRECTION('center_axis',(-1.,0.,0.));
#978=DIRECTION('ref_axis',(0.,1.,0.));
#979=DIRECTION('',(-1.,0.,0.));
#980=DIRECTION('center_axis',(-1.,0.,0.));
#981=DIRECTION('ref_axis',(0.,1.,0.));
#982=DIRECTION('',(-1.,0.,0.));
#983=DIRECTION('center_axis',(1.,0.,0.));
#984=DIRECTION('ref_axis',(0.,1.,0.));
#985=DIRECTION('center_axis',(-1.,0.,0.));
#986=DIRECTION('ref_axis',(0.,1.,0.));
#987=DIRECTION('',(-1.,0.,0.));
#988=DIRECTION('center_axis',(-1.,0.,0.));
#989=DIRECTION('ref_axis',(0.,1.,0.));
#990=DIRECTION('',(-1.,0.,0.));
#991=DIRECTION('center_axis',(1.,0.,0.));
#992=DIRECTION('ref_axis',(0.,1.,0.));
#993=DIRECTION('center_axis',(-1.,0.,0.));
#994=DIRECTION('ref_axis',(0.,1.,0.));
#995=DIRECTION('',(-1.,0.,0.));
#996=DIRECTION('center_axis',(0.,-1.,0.));
#997=DIRECTION('ref_axis',(1.,0.,0.));
#998=DIRECTION('center_axis',(-1.,0.,0.));
#999=DIRECTION('ref_axis',(0.,-1.,0.));
#1000=DIRECTION('',(0.,0.,1.));
#1001=DIRECTION('center_axis',(0.,1.,0.));
#1002=DIRECTION('ref_axis',(-1.,0.,0.));
#1003=DIRECTION('center_axis',(0.,1.,0.));
#1004=DIRECTION('ref_axis',(-1.,0.,0.));
#1005=DIRECTION('',(-1.,0.,0.));
#1006=DIRECTION('',(0.,0.,1.));
#1007=DIRECTION('',(0.,0.,1.));
#1008=DIRECTION('center_axis',(1.,0.,0.));
#1009=DIRECTION('ref_axis',(0.,1.,0.));
#1010=DIRECTION('',(0.,1.,0.));
#1011=DIRECTION('',(0.,0.,1.));
#1012=DIRECTION('center_axis',(0.,-1.,0.));
#1013=DIRECTION('ref_axis',(1.,0.,0.));
#1014=DIRECTION('',(1.,0.,0.));
#1015=DIRECTION('',(0.,0.,1.));
#1016=DIRECTION('center_axis',(-1.,0.,0.));
#1017=DIRECTION('ref_axis',(0.,-1.,0.));
#1018=DIRECTION('',(0.,-1.,0.));
#1019=DIRECTION('center_axis',(0.,0.,1.));
#1020=DIRECTION('ref_axis',(1.,0.,0.));
#1021=CARTESIAN_POINT('',(0.,0.,0.));
#1022=CARTESIAN_POINT('Origin',(55.88,19.05,12.7));
#1023=CARTESIAN_POINT('',(55.88,7.61999999999999,7.62));
#1024=CARTESIAN_POINT('',(55.88,43.18,7.62));
#1025=CARTESIAN_POINT('',(55.88,19.05,7.62));
#1026=CARTESIAN_POINT('',(50.8,38.1,12.7));
#1027=CARTESIAN_POINT('Origin',(55.88,43.18,12.7));
#1028=CARTESIAN_POINT('',(50.8,12.7,12.7));
#1029=CARTESIAN_POINT('',(50.8,19.05,12.7));
#1030=CARTESIAN_POINT('Origin',(55.88,7.61999999999999,12.7));
#1031=CARTESIAN_POINT('Origin',(50.927,7.61999999999999,12.7));
#1032=CARTESIAN_POINT('',(44.704,12.7,12.7));
#1033=CARTESIAN_POINT('',(50.927,12.7,12.7));
#1034=CARTESIAN_POINT('',(39.624,7.61999999999999,7.62));
#1035=CARTESIAN_POINT('Origin',(39.624,7.61999999999999,12.7));
#1036=CARTESIAN_POINT('',(50.927,7.61999999999999,7.62));
#1037=CARTESIAN_POINT('Origin',(39.624,31.75,12.7));
#1038=CARTESIAN_POINT('',(39.624,43.18,7.62));
#1039=CARTESIAN_POINT('',(39.624,31.75,7.62));
#1040=CARTESIAN_POINT('',(44.704,38.1,12.7));
#1041=CARTESIAN_POINT('',(44.704,31.75,12.7));
#1042=CARTESIAN_POINT('Origin',(39.624,43.18,12.7));
#1043=CARTESIAN_POINT('Origin',(53.975,43.18,12.7));
#1044=CARTESIAN_POINT('',(53.975,43.18,7.62));
#1045=CARTESIAN_POINT('',(53.975,38.1,12.7));
#1046=CARTESIAN_POINT('Origin',(44.704,12.7,7.62));
#1047=CARTESIAN_POINT('',(50.8,12.7,127.));
#1048=CARTESIAN_POINT('',(50.8,12.7,7.62));
#1049=CARTESIAN_POINT('',(44.704,12.7,127.));
#1050=CARTESIAN_POINT('',(46.228,12.7,127.));
#1051=CARTESIAN_POINT('',(44.704,12.7,7.62));
#1052=CARTESIAN_POINT('Origin',(50.8,12.7,7.62));
#1053=CARTESIAN_POINT('',(50.8,38.1,127.));
#1054=CARTESIAN_POINT('',(50.8,38.1,7.62));
#1055=CARTESIAN_POINT('Origin',(50.8,25.4,127.));
#1056=CARTESIAN_POINT('',(50.8,23.9014,80.5981315408538));
#1057=CARTESIAN_POINT('Origin',(50.8,25.4,80.5981315408538));
#1058=CARTESIAN_POINT('',(50.8,23.9014,105.998131540854));
#1059=CARTESIAN_POINT('Origin',(50.8,25.4,105.998131540854));
#1060=CARTESIAN_POINT('',(50.8,23.9014,55.1981315408538));
#1061=CARTESIAN_POINT('Origin',(50.8,25.4,55.1981315408538));
#1062=CARTESIAN_POINT('',(50.8,23.900003,131.398131540854));
#1063=CARTESIAN_POINT('Origin',(50.8,25.4,131.398131540854));
#1064=CARTESIAN_POINT('',(50.8,23.9014,29.7981315408538));
#1065=CARTESIAN_POINT('Origin',(50.8,25.4,29.7981315408538));
#1066=CARTESIAN_POINT('Origin',(57.15,25.4,7.62));
#1067=CARTESIAN_POINT('',(0.,50.8,7.62));
#1068=CARTESIAN_POINT('',(0.,0.,7.62));
#1069=CARTESIAN_POINT('',(0.,50.8,7.62));
#1070=CARTESIAN_POINT('',(114.3,0.,7.62));
#1071=CARTESIAN_POINT('',(0.,0.,7.62));
#1072=CARTESIAN_POINT('',(114.3,50.8,7.62));
#1073=CARTESIAN_POINT('',(114.3,0.,7.62));
#1074=CARTESIAN_POINT('',(114.3,50.8,7.62));
#1075=CARTESIAN_POINT('',(58.42,43.18,7.62));
#1076=CARTESIAN_POINT('',(58.42,7.61999999999999,7.62));
#1077=CARTESIAN_POINT('',(58.42,31.75,7.62));
#1078=CARTESIAN_POINT('',(74.676,43.18,7.62));
#1079=CARTESIAN_POINT('',(63.373,43.18,7.62));
#1080=CARTESIAN_POINT('',(74.676,7.61999999999999,7.62));
#1081=CARTESIAN_POINT('',(74.676,19.05,7.62));
#1082=CARTESIAN_POINT('',(60.325,7.61999999999999,7.62));
#1083=CARTESIAN_POINT('',(97.749995,40.64,7.62));
#1084=CARTESIAN_POINT('Origin',(95.25,40.64,7.62));
#1085=CARTESIAN_POINT('',(21.549995,40.64,7.62));
#1086=CARTESIAN_POINT('Origin',(19.05,40.64,7.62));
#1087=CARTESIAN_POINT('',(97.749995,10.16,7.62));
#1088=CARTESIAN_POINT('Origin',(95.25,10.16,7.62));
#1089=CARTESIAN_POINT('',(21.549995,10.16,7.62));
#1090=CARTESIAN_POINT('Origin',(19.05,10.16,7.62));
#1091=CARTESIAN_POINT('Origin',(58.42,31.75,12.7));
#1092=CARTESIAN_POINT('',(63.5,12.7,12.7));
#1093=CARTESIAN_POINT('Origin',(58.42,7.61999999999999,12.7));
#1094=CARTESIAN_POINT('',(63.5,38.1,12.7));
#1095=CARTESIAN_POINT('',(63.5,31.75,12.7));
#1096=CARTESIAN_POINT('Origin',(58.42,43.18,12.7));
#1097=CARTESIAN_POINT('Origin',(63.373,43.18,12.7));
#1098=CARTESIAN_POINT('',(69.596,38.1,12.7));
#1099=CARTESIAN_POINT('',(63.373,38.1,12.7));
#1100=CARTESIAN_POINT('Origin',(74.676,43.18,12.7));
#1101=CARTESIAN_POINT('Origin',(74.676,19.05,12.7));
#1102=CARTESIAN_POINT('',(69.596,12.7,12.7));
#1103=CARTESIAN_POINT('',(69.596,19.05,12.7));
#1104=CARTESIAN_POINT('Origin',(74.676,7.61999999999999,12.7));
#1105=CARTESIAN_POINT('Origin',(60.325,7.61999999999999,12.7));
#1106=CARTESIAN_POINT('',(60.325,12.7,12.7));
#1107=CARTESIAN_POINT('Origin',(69.596,38.1,7.62));
#1108=CARTESIAN_POINT('',(63.5,38.1,127.));
#1109=CARTESIAN_POINT('',(63.5,38.1,7.62));
#1110=CARTESIAN_POINT('',(69.596,38.1,127.));
#1111=CARTESIAN_POINT('',(68.072,38.1,127.));
#1112=CARTESIAN_POINT('',(69.596,38.1,7.62));
#1113=CARTESIAN_POINT('Origin',(63.5,38.1,7.62));
#1114=CARTESIAN_POINT('',(63.5,12.7,127.));
#1115=CARTESIAN_POINT('',(63.5,12.7,7.62));
#1116=CARTESIAN_POINT('Origin',(63.5,25.4,127.));
#1117=CARTESIAN_POINT('',(63.5,23.9014,80.5981315408538));
#1118=CARTESIAN_POINT('Origin',(63.5,25.4,80.5981315408538));
#1119=CARTESIAN_POINT('',(63.5,23.9014,105.998131540854));
#1120=CARTESIAN_POINT('Origin',(63.5,25.4,105.998131540854));
#1121=CARTESIAN_POINT('',(63.5,23.9014,55.1981315408538));
#1122=CARTESIAN_POINT('Origin',(63.5,25.4,55.1981315408538));
#1123=CARTESIAN_POINT('',(63.5,23.900003,131.398131540854));
#1124=CARTESIAN_POINT('Origin',(63.5,25.4,131.398131540854));
#1125=CARTESIAN_POINT('',(63.5,23.9014,29.7981315408538));
#1126=CARTESIAN_POINT('Origin',(63.5,25.4,29.7981315408538));
#1127=CARTESIAN_POINT('Origin',(69.596,12.7,7.62));
#1128=CARTESIAN_POINT('',(69.596,12.7,127.));
#1129=CARTESIAN_POINT('Origin',(69.596,25.4,127.));
#1130=CARTESIAN_POINT('',(69.596,12.7,7.62));
#1131=CARTESIAN_POINT('',(69.596,23.9014,29.7981315408538));
#1132=CARTESIAN_POINT('Origin',(69.596,25.4,29.7981315408538));
#1133=CARTESIAN_POINT('',(69.596,23.900003,131.398131540854));
#1134=CARTESIAN_POINT('Origin',(69.596,25.4,131.398131540854));
#1135=CARTESIAN_POINT('',(69.596,23.9014,55.1981315408538));
#1136=CARTESIAN_POINT('Origin',(69.596,25.4,55.1981315408538));
#1137=CARTESIAN_POINT('',(69.596,23.9014,105.998131540854));
#1138=CARTESIAN_POINT('Origin',(69.596,25.4,105.998131540854));
#1139=CARTESIAN_POINT('',(69.596,23.9014,80.5981315408538));
#1140=CARTESIAN_POINT('Origin',(69.596,25.4,80.5981315408538));
#1141=CARTESIAN_POINT('Origin',(46.228,25.4,127.));
#1142=CARTESIAN_POINT('',(44.704,38.1,127.));
#1143=CARTESIAN_POINT('',(49.276,38.1,127.));
#1144=CARTESIAN_POINT('Origin',(44.704,25.4,127.));
#1145=CARTESIAN_POINT('Origin',(65.024,25.4,127.));
#1146=CARTESIAN_POINT('',(65.024,12.7,127.));
#1147=CARTESIAN_POINT('Origin',(19.05,10.16,7.62));
#1148=CARTESIAN_POINT('',(21.549995,10.16,0.));
#1149=CARTESIAN_POINT('',(21.549995,10.16,7.62));
#1150=CARTESIAN_POINT('Origin',(19.05,10.16,0.));
#1151=CARTESIAN_POINT('Origin',(95.25,10.16,7.62));
#1152=CARTESIAN_POINT('',(97.749995,10.16,0.));
#1153=CARTESIAN_POINT('',(97.749995,10.16,7.62));
#1154=CARTESIAN_POINT('Origin',(95.25,10.16,0.));
#1155=CARTESIAN_POINT('Origin',(19.05,40.64,7.62));
#1156=CARTESIAN_POINT('',(21.549995,40.64,0.));
#1157=CARTESIAN_POINT('',(21.549995,40.64,7.62));
#1158=CARTESIAN_POINT('Origin',(19.05,40.64,0.));
#1159=CARTESIAN_POINT('Origin',(95.25,40.64,7.62));
#1160=CARTESIAN_POINT('',(97.749995,40.64,0.));
#1161=CARTESIAN_POINT('',(97.749995,40.64,7.62));
#1162=CARTESIAN_POINT('Origin',(95.25,40.64,0.));
#1163=CARTESIAN_POINT('Origin',(69.596,25.4,80.5981315408538));
#1164=CARTESIAN_POINT('',(44.704,23.9014,80.5981315408538));
#1165=CARTESIAN_POINT('',(69.596,23.9014,80.5981315408538));
#1166=CARTESIAN_POINT('Origin',(44.704,25.4,80.5981315408538));
#1167=CARTESIAN_POINT('Origin',(69.596,25.4,80.5981315408538));
#1168=CARTESIAN_POINT('',(69.596,23.9014,80.5981315408538));
#1169=CARTESIAN_POINT('Origin',(69.596,25.4,105.998131540854));
#1170=CARTESIAN_POINT('',(44.704,23.9014,105.998131540854));
#1171=CARTESIAN_POINT('',(69.596,23.9014,105.998131540854));
#1172=CARTESIAN_POINT('Origin',(44.704,25.4,105.998131540854));
#1173=CARTESIAN_POINT('Origin',(69.596,25.4,105.998131540854));
#1174=CARTESIAN_POINT('',(69.596,23.9014,105.998131540854));
#1175=CARTESIAN_POINT('Origin',(69.596,25.4,55.1981315408538));
#1176=CARTESIAN_POINT('',(44.704,23.9014,55.1981315408538));
#1177=CARTESIAN_POINT('',(69.596,23.9014,55.1981315408538));
#1178=CARTESIAN_POINT('Origin',(44.704,25.4,55.1981315408538));
#1179=CARTESIAN_POINT('Origin',(69.596,25.4,55.1981315408538));
#1180=CARTESIAN_POINT('',(69.596,23.9014,55.1981315408538));
#1181=CARTESIAN_POINT('Origin',(69.596,25.4,131.398131540854));
#1182=CARTESIAN_POINT('',(44.704,23.900003,131.398131540854));
#1183=CARTESIAN_POINT('',(69.596,23.900003,131.398131540854));
#1184=CARTESIAN_POINT('Origin',(44.704,25.4,131.398131540854));
#1185=CARTESIAN_POINT('Origin',(69.596,25.4,131.398131540854));
#1186=CARTESIAN_POINT('',(69.596,23.900003,131.398131540854));
#1187=CARTESIAN_POINT('Origin',(69.596,25.4,29.7981315408538));
#1188=CARTESIAN_POINT('',(44.704,23.9014,29.7981315408538));
#1189=CARTESIAN_POINT('',(69.596,23.9014,29.7981315408538));
#1190=CARTESIAN_POINT('Origin',(44.704,25.4,29.7981315408538));
#1191=CARTESIAN_POINT('Origin',(69.596,25.4,29.7981315408538));
#1192=CARTESIAN_POINT('',(69.596,23.9014,29.7981315408538));
#1193=CARTESIAN_POINT('Origin',(63.5,12.7,7.62));
#1194=CARTESIAN_POINT('Origin',(44.704,38.1,7.62));
#1195=CARTESIAN_POINT('',(44.704,38.1,7.62));
#1196=CARTESIAN_POINT('Origin',(50.8,38.1,7.62));
#1197=CARTESIAN_POINT('Origin',(114.3,50.8,0.));
#1198=CARTESIAN_POINT('',(114.3,50.8,0.));
#1199=CARTESIAN_POINT('',(0.,50.8,0.));
#1200=CARTESIAN_POINT('',(114.3,50.8,0.));
#1201=CARTESIAN_POINT('',(0.,50.8,0.));
#1202=CARTESIAN_POINT('',(114.3,50.8,0.));
#1203=CARTESIAN_POINT('Origin',(114.3,0.,0.));
#1204=CARTESIAN_POINT('',(114.3,0.,0.));
#1205=CARTESIAN_POINT('',(114.3,0.,0.));
#1206=CARTESIAN_POINT('',(114.3,0.,0.));
#1207=CARTESIAN_POINT('Origin',(0.,0.,0.));
#1208=CARTESIAN_POINT('',(0.,0.,0.));
#1209=CARTESIAN_POINT('',(0.,0.,0.));
#1210=CARTESIAN_POINT('',(0.,0.,0.));
#1211=CARTESIAN_POINT('Origin',(0.,50.8,0.));
#1212=CARTESIAN_POINT('',(0.,50.8,0.));
#1213=CARTESIAN_POINT('Origin',(57.15,25.4,0.));
#1214=UNCERTAINTY_MEASURE_WITH_UNIT(LENGTH_MEASURE(0.01),#1218,
'DISTANCE_ACCURACY_VALUE',
'Maximum model space distance between geometric entities at asserted c
onnectivities');
#1215=UNCERTAINTY_MEASURE_WITH_UNIT(LENGTH_MEASURE(0.01),#1218,
'DISTANCE_ACCURACY_VALUE',
'Maximum model space distance between geometric entities at asserted c
onnectivities');
#1216=(
GEOMETRIC_REPRESENTATION_CONTEXT(3)
GLOBAL_UNCERTAINTY_ASSIGNED_CONTEXT((#1214))
GLOBAL_UNIT_ASSIGNED_CONTEXT((#1218,#1220,#1221))
REPRESENTATION_CONTEXT('','3D')
);
#1217=(
GEOMETRIC_REPRESENTATION_CONTEXT(3)
GLOBAL_UNCERTAINTY_ASSIGNED_CONTEXT((#1215))
GLOBAL_UNIT_ASSIGNED_CONTEXT((#1218,#1220,#1221))
REPRESENTATION_CONTEXT('','3D')
);
#1218=(
LENGTH_UNIT()
NAMED_UNIT(*)
SI_UNIT(.MILLI.,.METRE.)
);
#1219=(
LENGTH_UNIT()
NAMED_UNIT(*)
SI_UNIT($,.METRE.)
);
#1220=(
NAMED_UNIT(*)
PLANE_ANGLE_UNIT()
SI_UNIT($,.RADIAN.)
);
#1221=(
NAMED_UNIT(*)
SI_UNIT($,.STERADIAN.)
SOLID_ANGLE_UNIT()
);
#1222=SHAPE_DEFINITION_REPRESENTATION(#1223,#1224);
#1223=PRODUCT_DEFINITION_SHAPE('',$,#1226);
#1224=SHAPE_REPRESENTATION('',(#730),#1216);
#1225=PRODUCT_DEFINITION_CONTEXT('part definition',#1230,'design');
#1226=PRODUCT_DEFINITION('2026-08-11-20-06-07-962',
'MAE148_Titlted_Camera',#1227,#1225);
#1227=PRODUCT_DEFINITION_FORMATION('',$,#1232);
#1228=PRODUCT_RELATED_PRODUCT_CATEGORY('MAE148_Titlted_Camera',
'MAE148_Titlted_Camera',(#1232));
#1229=APPLICATION_PROTOCOL_DEFINITION('international standard',
'automotive_design',2009,#1230);
#1230=APPLICATION_CONTEXT(
'Core Data for Automotive Mechanical Design Process');
#1231=PRODUCT_CONTEXT('part definition',#1230,'mechanical');
#1232=PRODUCT('2026-08-11-20-06-07-962','MAE148_Titlted_Camera',$,(#1231));
#1233=PRESENTATION_STYLE_ASSIGNMENT((#1234));
#1234=SURFACE_STYLE_USAGE(.BOTH.,#1235);
#1235=SURFACE_SIDE_STYLE('',(#1236));
#1236=SURFACE_STYLE_FILL_AREA(#1237);
#1237=FILL_AREA_STYLE('Steel - Satin',(#1238));
#1238=FILL_AREA_STYLE_COLOUR('Steel - Satin',#1239);
#1239=COLOUR_RGB('Steel - Satin',0.627450980392157,0.627450980392157,0.627450980392157);
ENDSEC;
END-ISO-10303-21;
